<?xml version="1.0" standalone="no"?>
<!DOCTYPE svg PUBLIC "-//W3C//DTD SVG 1.1//EN" "http://www.w3.org/Graphics/SVG/1.1/DTD/svg11.dtd" >
<svg xmlns="http://www.w3.org/2000/svg">
<metadata>
Created by FontForge 20120731 at Thu Apr  7 17:03:05 2016
 By admin
</metadata>
<defs>
<font id="iconfont" horiz-adv-x="1024" >
  <font-face 
    font-family="iconfont"
    font-weight="500"
    font-stretch="normal"
    units-per-em="1024"
    panose-1="2 0 6 3 0 0 0 0 0 0"
    ascent="896"
    descent="-128"
    x-height="792"
    bbox="-2 -224 1071.56 896"
    underline-thickness="50"
    underline-position="-100"
    unicode-range="U+0078-E640"
  />
<missing-glyph horiz-adv-x="374" 
d="M34 0v682h272v-682h-272zM68 34h204v614h-204v-614z" />
    <glyph glyph-name=".notdef" horiz-adv-x="374" 
d="M34 0v682h272v-682h-272zM68 34h204v614h-204v-614z" />
    <glyph glyph-name=".null" horiz-adv-x="0" 
 />
    <glyph glyph-name="nonmarkingreturn" horiz-adv-x="341" 
 />
    <glyph glyph-name="x" unicode="x" horiz-adv-x="1001" 
d="M281 543q-27 -1 -53 -1h-83q-18 0 -36.5 -6t-32.5 -18.5t-23 -32t-9 -45.5v-76h912v41q0 16 -0.5 30t-0.5 18q0 13 -5 29t-17 29.5t-31.5 22.5t-49.5 9h-133v-97h-438v97zM955 310v-52q0 -23 0.5 -52t0.5 -58t-10.5 -47.5t-26 -30t-33 -16t-31.5 -4.5q-14 -1 -29.5 -0.5
t-29.5 0.5h-32l-45 128h-439l-44 -128h-29h-34q-20 0 -45 1q-25 0 -41 9.5t-25.5 23t-13.5 29.5t-4 30v167h911zM163 247q-12 0 -21 -8.5t-9 -21.5t9 -21.5t21 -8.5q13 0 22 8.5t9 21.5t-9 21.5t-22 8.5zM316 123q-8 -26 -14 -48q-5 -19 -10.5 -37t-7.5 -25t-3 -15t1 -14.5
t9.5 -10.5t21.5 -4h37h67h81h80h64h36q23 0 34 12t2 38q-5 13 -9.5 30.5t-9.5 34.5q-5 19 -11 39h-368zM336 498v228q0 11 2.5 23t10 21.5t20.5 15.5t34 6h188q31 0 51.5 -14.5t20.5 -52.5v-227h-327z" />
    <glyph glyph-name="uniE600" unicode="&#xe600;" 
d="M969.5 349q-13.5 124 -85.5 223t-184 148.5t-236.5 36.5t-223.5 -85.5t-149 -184.5t-36.5 -236t85.5 -223t184 -148.5t236.5 -36.5t223.5 85.5t149 184.5t36.5 236zM648 488q30 0 51.5 -21.5t21.5 -51.5t-21.5 -51.5t-51.5 -21.5t-51.5 21.5t-21.5 51.5t21.5 51.5
t51.5 21.5zM376 488q30 0 51.5 -21.5t21.5 -51.5t-21.5 -51.5t-51.5 -21.5t-51.5 21.5t-21.5 51.5t21.5 51.5t51.5 21.5zM737 175q-16 -73 -81.5 -120t-143.5 -47q-81 0 -146.5 48t-79.5 123q0 19 10.5 28t22.5 9h380q6 0 11.5 -1t13.5 -4.5t12 -13t1 -22.5z" />
    <glyph glyph-name="uniE601" unicode="&#xe601;" 
d="M196 289zM102 289q0 39 27.5 66.5t66.5 27.5t66.5 -27.5t27.5 -66.5t-27.5 -66.5t-66.5 -27.5t-66.5 27.5t-27.5 66.5zM422 581q-11 12 -38 12q-21 0 -36.5 -15.5t-15.5 -37.5q0 -21 12 -33t25 -16q50 -33 79.5 -86t29.5 -115.5t-29.5 -115.5t-80.5 -86q-36 -11 -36 -49
q0 -22 15.5 -37t36.5 -15q12 0 21.5 3t12.5 6l4 2q74 47 117.5 124t43.5 167.5t-43.5 167.5t-117.5 124zM646 774q-17 7 -42 7q-26 0 -44.5 -18.5t-18.5 -44.5q0 -16 22 -33.5t45 -28.5q67 -68 104.5 -157t37.5 -189q0 -108 -45 -204.5t-124 -165.5q-18 -7 -29 -22.5
t-11 -35.5q0 -26 18.5 -44.5t44.5 -18.5q12 0 23.5 2.5t16.5 4.5l5 2q106 85 166 208t60 264q0 142 -61 265.5t-168 208.5z" />
    <glyph glyph-name="uniE602" unicode="&#xe602;" 
d="M644 629l-359 -359l359 -359h95v1l-358 358l358 359h-95z" />
    <glyph glyph-name="uniE603" unicode="&#xe603;" horiz-adv-x="1029" 
d="M-2 181q0 50 13.5 87t47.5 70v-313q-35 31 -48 68t-13 88zM957 338q31 -24 50 -65.5t19 -91.5q0 -51 -15 -87.5t-54 -68.5v313zM836 384q19 0 38.5 -15.5t19.5 -42.5v-266q0 -12 -5.5 -22.5t-14 -19.5t-19 -13.5t-19.5 -4.5h-72q-27 0 -45 16.5t-18 43.5v266
q0 27 20 42.5t43 15.5h72zM250 384q30 0 48 -14.5t18 -44.5v-258q0 -31 -15.5 -48.5t-41.5 -17.5h-75q-30 0 -45 18.5t-15 45.5v260q0 30 18.5 44.5t43.5 14.5h64zM510 834q81 0 152.5 -28t125.5 -78.5t84.5 -121t30.5 -155.5h-67q-26 0 -46.5 -0.5t-20.5 0.5
q0 63 -21.5 111.5t-57 81.5t-82 49.5t-98.5 16.5q-51 0 -97 -21.5t-81.5 -58t-57 -83t-21.5 -96.5h-135q0 85 30.5 155.5t84 121t125 78.5t152.5 28z" />
    <glyph glyph-name="uniE604" unicode="&#xe604;" 
d="M245 298q2 4 5 6l425 425q6 7 15.5 7t15.5 -7l68 -67q6 -7 6 -16.5t-6 -15.5l-16 -16l-309 -310q-7 -6 -7 -15.5t7 -16.5l325 -325q6 -7 6 -16t-6 -16l-68 -67q-6 -7 -15.5 -7t-15.5 7l-17 16l-341 341l-67 67l-2 2q-9 11 -3 24z" />
    <glyph glyph-name="uniE605" unicode="&#xe605;" 
d="M269 58q13 -14 32 -14t32 14l677 677q13 13 13 31.5t-13 32.5q-13 13 -32 13t-32 -13l-677 -677q-13 -14 -13 -32.5t13 -31.5zM969 483q-10 -10 -10 -23v-593q0 -6 -4 -10t-10 -4h-867q-6 0 -10 4t-4 10v867q0 6 4 10t10 4h594q13 0 22 9q15 15 7 35t-29 20h-609
q-26 0 -44.5 -18.5t-18.5 -44.5v-897q0 -26 18.5 -44.5t44.5 -18.5h897q26 0 44.5 18.5t18.5 44.5v608q0 21 -19.5 29.5t-34.5 -6.5z" />
    <glyph glyph-name="uniE606" unicode="&#xe606;" 
d="M806 477q69 0 118.5 48.5t49.5 117.5v1q-1 0 -1 0.5t1 1.5q0 69 -49.5 117.5t-119 48.5t-118.5 -48.5t-49 -117.5v-2v-1q0 -17 5 -38l-307 -199q-49 47 -118 47t-118.5 -48t-49.5 -117v-1l1 -1h-1v-2q0 -68 49.5 -116.5t118.5 -48.5q74 0 125 55l295 -214v-3v-1v-1v-1v-1
q0 -68 49 -116.5t118.5 -48.5t119 48.5t49.5 116.5q0 1 -0.5 1.5t-0.5 1t1 0.5v1q0 69 -49.5 117.5t-118.5 48.5q-44 0 -81.5 -21.5t-60.5 -56.5l-282 204q4 19 4 35v2v1v1q0 19 -7 43l305 198q50 -52 122 -52z" />
    <glyph glyph-name="uniE607" unicode="&#xe607;" 
d="M497 131q81 0 138.5 57.5t57.5 139.5v224q0 81 -57.5 138.5t-138.5 57.5t-138.5 -57.5t-57.5 -138.5v-224q0 -82 57.5 -139.5t138.5 -57.5zM357 552q0 58 41 99t99 41t99 -41t41 -99v-224q0 -58 -41 -99.5t-99 -41.5t-99 41.5t-41 99.5v224zM833 328h-56
q0 -116 -82 -198.5t-198 -82.5t-198 82.5t-82 198.5h-56q0 -132 89 -228.5t219 -106.5v-86h-168v-56h392v56h-168v86q130 10 219 106.5t89 228.5z" />
    <glyph glyph-name="uniE608" unicode="&#xe608;" 
d="M512 -212q-104 0 -199 40.5t-163.5 109t-109 163.5t-40.5 199t40.5 199t109 163.5t163.5 109t199 40.5t199 -40.5t163.5 -109t109 -163.5t40.5 -199t-40.5 -199t-109 -163.5t-163.5 -109t-199 -40.5zM512 739q-89 0 -170.5 -35t-140 -93.5t-93.5 -140t-35 -170.5
t35 -170.5t93.5 -140t140 -93.5t170.5 -35t170.5 35t140 93.5t93.5 140t35 170.5t-35 170.5t-93.5 140t-140 93.5t-170.5 35zM513 1q-76 0 -144 33t-115 94q-9 12 -7.5 27t13.5 24t27 7.5t24 -13.5q37 -47 90 -73t112 -26q60 0 113.5 26.5t89.5 74.5q10 12 25 13.5t27 -7.5
t13.5 -24t-7.5 -27q-47 -61 -115.5 -95t-145.5 -34zM349 296q-23 0 -39 16t-16 39v73q0 23 16 39t38.5 16t38.5 -16t16 -39v-73q0 -23 -16 -39t-38 -16zM678 296q-23 0 -39 16t-16 39v73q0 23 16 39t38.5 16t39 -16t16.5 -39v-73q0 -23 -16.5 -39t-38.5 -16zM678 296z" />
    <glyph glyph-name="uniE609" unicode="&#xe609;" 
d="M512 -128q139 0 257 68.5t186.5 186.5t68.5 257t-68.5 257t-186.5 186.5t-257 68.5t-257 -68.5t-186.5 -186.5t-68.5 -257t68.5 -257t186.5 -186.5t257 -68.5zM512 680q-23 0 -39 -16.5t-16 -38.5v-318q0 -23 16 -39t39 -16t39 16t16 39v318q0 22 -16 38.5t-39 16.5z
M512 202q-23 0 -39 -16.5t-16 -38.5v-4q0 -22 16 -38.5t39 -16.5t39 16.5t16 38.5v4q0 22 -16 38.5t-39 16.5zM512 -62q-91 0 -173.5 35.5t-142 95t-95 142t-35.5 173.5t35.5 173.5t95 142t142 95t173.5 35.5t173.5 -35.5t142 -95t95 -142t35.5 -173.5t-35.5 -173.5
t-95 -142t-142 -95t-173.5 -35.5z" />
    <glyph glyph-name="uniE60A" unicode="&#xe60a;" 
d="M512 -128q-104 0 -199 40.5t-163.5 109t-109 163.5t-40.5 199t40.5 199t109 163.5t163.5 109t199 40.5t199 -40.5t163.5 -109t109 -163.5t40.5 -199t-40.5 -199t-109 -163.5t-163.5 -109t-199 -40.5v0zM590 633q0 29 -24.5 50t-54.5 21t-54 -21t-24 -50v-295
q0 -30 20.5 -50.5t50.5 -20.5t58 21t28 50v295v0zM513 228q-33 0 -56.5 -23.5t-23.5 -56.5t23.5 -56.5t56.5 -23.5t56.5 23.5t23.5 56.5t-23.5 56.5t-56.5 23.5v0zM513 228z" />
    <glyph glyph-name="uniE60B" unicode="&#xe60b;" horiz-adv-x="1000" 
d="M350 -131l-62 61l387 386l-387 386l62 62l448 -448z" />
    <glyph glyph-name="uniE60C" unicode="&#xe60c;" 
d="M738 163l46 45l-272 272l-272 -272l46 -45l226 226z" />
    <glyph glyph-name="uniE60D" unicode="&#xe60d;" 
d="M286 413l-46 -45l272 -272l272 272l-46 45l-226 -226z" />
    <glyph glyph-name="uniE60E" unicode="&#xe60e;" 
d="M502.5 747q94.5 0 161 -65.5t66.5 -158t-66.5 -158t-161 -65.5t-161 65.5t-66.5 158t66.5 158t161 65.5zM502.5 747q94.5 0 161 -65.5t66.5 -158t-66.5 -158t-161 -65.5t-161 65.5t-66.5 158t66.5 158t161 65.5zM417 225h190q121 0 207 -84.5t86 -203.5v-19
q0 -15 -9.5 -26.5t-31 -18.5t-44 -11.5t-61 -6t-68.5 -2t-79 -0.5h-190h-79q-26 0 -67.5 2t-62 6t-43.5 11t-32 18.5t-9 27.5v19q0 119 86 203.5t207 84.5z" />
    <glyph glyph-name="uniE60F" unicode="&#xe60f;" 
d="M233 705q-19 18 -19 44t19 44.5t46 18.5t46 -18l461 -449q19 -18 19 -44.5t-19 -44.5l-461 -449q-19 -18 -46 -18t-46 18.5t-19 44.5t19 44l416 404zM233 705z" />
    <glyph glyph-name="uniE610" unicode="&#xe610;" 
d="M512 812q-139 0 -257 -68.5t-186.5 -186.5t-68.5 -257t68.5 -257t186.5 -186.5t257 -68.5t257 68.5t186.5 186.5t68.5 257t-68.5 257t-186.5 186.5t-257 68.5zM800 268h-256v-256q0 -14 -9.5 -23t-22.5 -9t-22.5 9t-9.5 23v256h-256q-14 0 -23 9.5t-9 22.5t9.5 22.5
t22.5 9.5h256v256q0 14 9.5 23t22.5 9t22.5 -9t9.5 -23v-256h256q14 0 23 -9.5t9 -22.5t-9 -22.5t-23 -9.5z" />
    <glyph glyph-name="uniE611" unicode="&#xe611;" 
d="M512 811q-103 0 -196.5 -39.5t-162 -106t-109.5 -159t-44 -194.5q3 119 59 219t151 158t206 58q113 0 208.5 -60t151 -163t55.5 -224q0 -40 28.5 -68t68 -28t67.5 28t28 68q0 104 -40.5 198.5t-109 163t-163 109t-198.5 40.5zM512 -212q102 0 195.5 39.5t162 106t110 159
t43.5 195.5q-3 -119 -59 -219.5t-150.5 -158.5t-206.5 -58t-208 60t-151.5 163t-55.5 225q0 39 -28 67t-68 28t-68 -28t-28 -67q0 -105 40.5 -199.5t109 -163t163 -109t199.5 -40.5z" />
    <glyph glyph-name="uniE612" unicode="&#xe612;" 
d="M512 -212q-139 0 -257 68.5t-186.5 186.5t-68.5 257t68.5 257t186.5 186.5t257 68.5t257 -68.5t186.5 -186.5t68.5 -257t-68.5 -257t-186.5 -186.5t-257 -68.5zM512 755q-93 0 -177 -36t-145 -97t-97 -145t-36 -177t36 -177t97 -145t145 -97t177 -36t177 36t145 97
t97 145t36 177t-36 177t-97 145t-145 97t-177 36zM825 272h-285v-285q0 -13 -14 -18.5t-28 0t-14 18.5v285h-285q-13 0 -18.5 14t-0.5 28t19 14h285v285q0 13 14 18.5t28 0.5t14 -19v-285h285q12 0 18 -14t0.5 -28t-18.5 -14z" />
    <glyph glyph-name="uniE613" unicode="&#xe613;" 
d="M888 621q12 12 28.5 12t28.5 -12q12 -11 12 -28t-12 -28l-406 -406q-12 -12 -28.5 -12t-27.5 12q-12 12 -12 28.5t12 28.5zM539 216q11 -12 11 -28.5t-11 -28.5q-12 -12 -28.5 -12t-28.5 12l-406 406q-11 11 -11 28t11 28q12 12 28.5 12t28.5 -12zM539 216z" />
    <glyph glyph-name="uniE614" unicode="&#xe614;" 
d="M513 273q-113 0 -193 79t-80 190.5t80 190.5t193 79t193 -79t80 -190.5t-80 -190.5t-193 -79zM513 774q-97 0 -166 -68t-69 -163.5t69 -163.5t166 -68t166 68t69 163.5t-69 163.5t-166 68zM607 -212h-189h-69q-23 0 -62.5 1.5t-59.5 4.5t-48.5 8t-42.5 13.5t-29.5 20
t-21.5 27.5t-6 37v18q0 91 45.5 168t124 122t169.5 45h189q92 0 170 -45t123.5 -122t45.5 -168v-18q0 -21 -6.5 -37t-22 -27.5t-30 -20t-43.5 -13.5t-49 -8t-59 -4.5t-62 -1.5h-67zM418 214q-124 0 -212 -86.5t-88 -209.5v-18q0 -13 4.5 -23.5t16 -18t24.5 -13t35.5 -9
t42.5 -5.5t52 -3t58.5 -1.5t66.5 -0.5h189q51 0 77 0.5t68.5 2.5t64.5 6.5t46 12.5t34.5 21t10.5 31v18q0 123 -88.5 209.5t-212.5 86.5h-189z" />
    <glyph glyph-name="uniE615" unicode="&#xe615;" 
d="M314 459.5q0 81.5 58 139.5t140 58t140 -58t58 -139.5t-58 -139.5t-140 -58t-140 58t-58 139.5zM150 -50q2 21 6 42t17.5 60t33.5 72t58.5 70.5t88.5 62.5q70 -55 158 -55q89 0 159 56q50 -26 88.5 -63t58.5 -70t33.5 -72t17 -60t5.5 -43q-2 -1 -362 -1t-362 1z" />
    <glyph glyph-name="uniE616" unicode="&#xe616;" 
d="M536 641zM435 640.5q0 41.5 29.5 71t71 29.5t71 -29.5t29.5 -71t-29.5 -71t-71 -29.5t-71 29.5t-29.5 71zM535.5 521q-49.5 0 -84.5 35t-35 84.5t35 84.5t84.5 35t85 -35t35.5 -84.5t-35.5 -84.5t-85 -35zM535.5 722q-33.5 0 -57.5 -24t-24 -57.5t24 -57.5t57.5 -24
t57.5 24t24 57.5t-24 57.5t-57.5 24zM281 535zM191 535q0 37 26.5 63.5t63.5 26.5t63.5 -26.5t26.5 -63.5t-26.5 -63.5t-63.5 -26.5t-63.5 26.5t-26.5 63.5zM281 426q-45 0 -77 32t-32 77t32 77.5t77 32.5t77 -32.5t32 -77.5t-32 -77t-77 -32zM281 606q-29 0 -50 -20.5
t-21 -50t21 -50.5t50 -21t50 21t21 50.5t-21 50t-50 20.5zM173 275zM95 275q0 32 23 54.5t55 22.5t54.5 -22.5t22.5 -54.5t-22.5 -54.5t-54.5 -22.5t-55 22.5t-23 54.5zM173 178q-40 0 -68.5 28.5t-28.5 68.5t28.5 68t68.5 28t68 -28t28 -68t-28 -68.5t-68 -28.5zM173 333
q-24 0 -41 -17t-17 -41t17 -41t41 -17t41 17t17 41t-17 41t-41 17zM281 15zM218 15q0 26 18.5 44.5t44.5 18.5t44.5 -18.5t18.5 -44.5t-18.5 -44t-44.5 -18t-44.5 18t-18.5 44zM281 -67q-34 0 -58 24t-24 58t24 58t58 24t58 -24t24 -58t-24 -58t-58 -24zM281 59
q-18 0 -30.5 -13t-12.5 -31t12.5 -30.5t30.5 -12.5t30.5 12.5t12.5 30.5t-12.5 31t-30.5 13zM536 -89zM484 -88.5q0 21.5 15 36.5t36.5 15t37 -15t15.5 -36.5t-15.5 -37t-37 -15.5t-36.5 15.5t-15 37zM535.5 -160q-29.5 0 -50.5 21t-21 50.5t21 50.5t50.5 21t50.5 -21
t21 -50.5t-21 -50.5t-50.5 -21zM536 -56q-14 0 -23.5 -9.5t-9.5 -23t9.5 -23.5t23.5 -10t23.5 10t9.5 23.5t-9.5 23t-23.5 9.5zM795 18zM756 18q0 16 11.5 27.5t27 11.5t27 -11.5t11.5 -27.5t-11.5 -27t-27 -11t-27 11t-11.5 27zM794.5 -40q-23.5 0 -40.5 17t-17 41t17 41
t40.5 17t40.5 -17t17 -41t-17 -41t-40.5 -17zM795 37q-8 0 -14 -5.5t-6 -13.5t6 -13.5t14 -5.5t13.5 5.5t5.5 13.5t-5.5 13.5t-13.5 5.5zM900 274zM872 274.5q0 11.5 8.5 20t20 8.5t20 -8.5t8.5 -20t-8.5 -20t-20 -8.5t-20 8.5t-8.5 20zM900.5 227q-19.5 0 -33.5 14
t-14 33.5t14 33.5t33.5 14t33.5 -14t14 -33.5t-14 -33.5t-33.5 -14zM900.5 283q-8.5 0 -8.5 -8.5t8.5 -8.5t8.5 8.5t-8.5 8.5zM795 532zM777 531.5q0 7.5 5 12.5t12.5 5t12.5 -5t5 -12.5t-5 -12.5t-12.5 -5t-12.5 5t-5 12.5zM795 532zM758 531.5q0 15.5 10.5 26t26 10.5
t26 -10.5t10.5 -26t-10.5 -26t-26 -10.5t-26 10.5t-10.5 26z" />
    <glyph glyph-name="uniE617" unicode="&#xe617;" 
d="M0 719q0 39 27 66t66 27h838q39 0 66 -27t27 -66v-838q0 -39 -27 -66t-66 -27h-838q-39 0 -66 27t-27 66v838zM47 719v-838q0 -19 13.5 -32.5t32.5 -13.5h838q19 0 32.5 13.5t13.5 32.5v838q0 19 -13.5 32.5t-32.5 13.5h-838q-19 0 -32.5 -13.5t-13.5 -32.5zM465 347
h-279v-94h279v-279h94v279h279v94h-279v279h-94v-279z" />
    <glyph glyph-name="uniE618" unicode="&#xe618;" 
d="M989 434v283q0 25 -17.5 42.5t-42.5 17.5h-551h-283q-25 0 -42.5 -17.5t-17.5 -42.5v-834q0 -25 17 -43q18 -17 43 -17h834q25 0 43 17q17 18 17 43v551zM790 268.5q-14 -13.5 -33 -13.5h-200v-200q0 -20 -13.5 -33.5t-33 -13.5t-33 13.5t-13.5 33.5v200h-200
q-19 0 -32.5 13.5t-13.5 32.5t13.5 33t32.5 14h200v200q0 19 13.5 32.5t33 13.5t33 -13.5t13.5 -32.5v-200h200q19 0 33 -14t14 -33t-14 -32.5z" />
    <glyph glyph-name="uniE619" unicode="&#xe619;" 
d="M512 802q-102 0 -195 -39.5t-160.5 -107t-107 -160.5t-39.5 -195t39.5 -195t107 -160.5t160.5 -107t195 -39.5t195 39.5t160.5 107t107 160.5t39.5 195t-39.5 195t-107 160.5t-160.5 107t-195 39.5zM683 109l-18 -18q-7 -7 -17.5 -7t-17.5 7l-163 163q-5 5 -5 28v319
q0 11 7 18t18 7h25q10 0 17.5 -7t7.5 -18v-311l146 -145q7 -8 7 -18t-7 -18zM683 109z" />
    <glyph glyph-name="uniE61A" unicode="&#xe61a;" 
d="M512 598q-63 0 -107 -44t-44 -106.5t44 -107t106.5 -44.5t107 44.5t44.5 107t-44.5 106.5t-106.5 44zM512 812q-104 0 -199 -41t-163.5 -109.5t-109 -163t-40.5 -198.5t40.5 -199t109 -163.5t163.5 -109t199 -40.5t199 40.5t163.5 109t109 163.5t40.5 199t-40.5 198.5
t-109 163t-163.5 109.5t-199 41zM776 -5q-5 0 -10.5 5t-9.5 9l-3 4q-15 98 -83 162.5t-158 64.5t-158 -64.5t-83 -162.5q-5 -17 -23 -18q-12 -1 -20 0.5t-11 4.5t-5 6t-2 5l1 2q3 88 54 158.5t132 102.5q-42 29 -67 74.5t-25 98.5q0 86 60.5 147t146.5 61t146.5 -61
t60.5 -147q0 -53 -25 -98.5t-67 -74.5q81 -32 132 -102.5t54 -158.5q0 -10 -14 -16q-9 -4 -23 -2zM776 -5z" />
    <glyph glyph-name="uniE61B" unicode="&#xe61b;" 
d="M697 33q-85 -61 -189 -59q-13 0 -26 1q-2 0 -6 0.5t-5 1.5q-14 1 -20 3q-2 0 -13 3q-12 2 -19 5q-2 0 -5.5 1t-3.5 2q-14 4 -22 8q-1 0 -5 2q-14 6 -24 12h-1v1q-41 22 -74 55q0 1 -1 1q-10 10 -19 22q-1 1 -2 2.5t-2 2.5q-71 89 -71 203h75q3 0 5 3t0 6l-126 190
q-2 3 -4.5 3t-4.5 -3l-126 -190q-2 -3 0 -6t5 -3h75q0 -133 75 -243q0 -1 1 -2v-1q3 -4 16 -21q5 -7 6 -7q9 -12 24 -27q0 -1 1 -2t2 -1q42 -43 95 -72q2 -1 3 -2q13 -7 31 -15q1 -1 3.5 -2t3.5 -2q11 -4 28 -10q10 -3 13 -4q8 -3 25 -7q14 -3 16 -3q1 -1 3.5 -1.5t3.5 -0.5
q4 -1 24 -3q1 0 4 -0.5t4 -0.5q24 -3 43 -3q133 0 242 78q18 12 21.5 33.5t-8.5 39t-33 21t-38 -8.5zM936 300q0 133 -74 243q-1 0 -1.5 1.5t-0.5 2.5q-6 8 -19 24l-1 1q-1 1 -1 2q-65 79 -158 120q-1 1 -3 1.5t-2 1.5q-13 5 -30 11q-1 0 -5 1.5t-6 1.5q-11 3 -27 7
q-14 3 -15 3.5t-3.5 1t-3.5 0.5q-3 1 -6.5 1.5t-7.5 1t-6 0.5q-1 0 -6.5 0.5t-7.5 1.5q-15 1 -34 1q-1 0 -3 0.5t-3 0.5h-1q-133 -1 -242 -78q-18 -12 -21.5 -33t8.5 -38.5t33 -21.5t38 9q84 59 187 58q15 0 29 -1q1 0 5 -1h3q13 -2 23 -4q1 0 10 -2q13 -3 22 -6q1 0 3.5 -1
t3.5 -1q13 -4 24 -9l1 -1h1q72 -31 122 -92v-1q74 -90 74 -207h-75q-3 0 -5 -3t0 -5l126 -191q2 -3 4.5 -3t4.5 3l126 191q2 2 0 5t-5 3h-75v0z" />
    <glyph glyph-name="uniE61C" unicode="&#xe61c;" 
d="M515.5 805q-103.5 0 -197.5 -40.5t-162 -108.5t-108.5 -162t-40.5 -197.5t40.5 -197.5t108.5 -162t162 -108.5t197.5 -40.5t197.5 40.5t162 108.5t108.5 162t40.5 197.5t-40.5 197.5t-108.5 162t-162 108.5t-197.5 40.5zM515.5 -170q-94.5 0 -181 37t-149 99.5t-99.5 149
t-37 181t37 181t99.5 149t149 99.5t181 37t181 -37t149 -99.5t99.5 -149t37 -181t-37 -181t-99.5 -149t-149 -99.5t-181 -37zM615 288q36 24 57.5 63t21.5 85q0 74 -52.5 126t-126 52t-126 -52t-52.5 -126q0 -46 21.5 -85t58.5 -63q-77 -30 -124.5 -98.5t-47.5 -153.5v0
q0 -12 8.5 -20.5t20.5 -8.5q21 0 21 29v1q0 88 66 154t154.5 66t154.5 -66t66 -155q0 -29 22 -29q11 0 19.5 8.5t8.5 19.5v1v0q0 85 -47.5 153.5t-123.5 98.5zM515.5 301q-55.5 0 -95 39.5t-39.5 95.5t39.5 95.5t95 39.5t95 -39.5t39.5 -95.5t-39.5 -95.5t-95 -39.5z" />
    <glyph glyph-name="uniE61D" unicode="&#xe61d;" 
d="M1006 394q-13 10 -29.5 7.5t-26.5 -15.5l-42 -55q-16 158 -129 271q-86 87 -202 117.5t-232 0t-202 -117t-116.5 -202.5t0 -231.5t116.5 -201.5q65 -65 147.5 -98.5t170.5 -33.5t170.5 33.5t147.5 98.5q12 11 12 28t-12 28.5t-28.5 11.5t-28.5 -11q-53 -53 -122 -81
t-139 -28t-139 28t-122 81t-80.5 122t-27.5 138.5t27.5 138.5t80.5 122q71 71 166 96t190 0t166 -96q94 -94 106 -227l-51 54q-12 12 -28.5 12t-28.5 -11.5t-12.5 -28t11.5 -28.5l124 -128q11 -12 29 -12h2q18 1 30 16l110 145q10 13 8 30t-16 27z" />
    <glyph glyph-name="uniE61E" unicode="&#xe61e;" 
d="M941 329l-17 16q-17 17 -42 17t-42 -17l-329 -320l-328 320q-17 17 -42 17t-42 -17l-17 -16q-18 -17 -18 -41t18 -41l370 -361l17 -16q18 -17 42.5 -17t42.5 17l16 16l371 361q17 17 17 41t-17 41z" />
    <glyph glyph-name="uniE61F" unicode="&#xe61f;" 
d="M512 896q-139 0 -257 -68.5t-186.5 -186.5t-68.5 -257t68.5 -257t186.5 -186.5t257 -68.5t257 68.5t186.5 186.5t68.5 257t-68.5 257t-186.5 186.5t-257 68.5zM512 -65q-91 0 -174 35.5t-143 96t-95.5 143.5t-35.5 174q0 185 131.5 316.5t316.5 131.5t316.5 -131.5
t131.5 -316.5q0 -91 -35.5 -174t-95.5 -143.5t-143 -96t-174 -35.5zM544 397v307q0 13 -9.5 22.5t-22.5 9.5t-22.5 -9.5t-9.5 -22.5v-320q0 -14 10 -23v-1l1 -1l159 -158q9 -10 22.5 -10t22.5 9.5t9 23t-9 22.5z" />
    <glyph glyph-name="uniE620" unicode="&#xe620;" 
d="M516 513l393 -406q17 -18 41.5 -18t42 17.5t17.5 43t-18 43.5l-434 450q-17 17 -41.5 17t-42.5 -17l-434 -450q-17 -18 -17 -43t17 -43t41.5 -18t42.5 18zM516 513z" />
    <glyph glyph-name="uniE621" unicode="&#xe621;" 
d="M942 169.5q-9 -9.5 -21.5 -10t-21.5 7.5l-370 370q-11 12 -17 12t-18 -12l-370 -370q-8 -8 -21 -7.5t-22 10t-9.5 22t8.5 21.5l411 411q7 7 18 8h5q12 -1 19 -8l411 -411q8 -9 7.5 -21.5t-9.5 -22z" />
    <glyph glyph-name="uniE622" unicode="&#xe622;" 
d="M512 725q-93 0 -171.5 -45.5t-124 -124t-45.5 -171.5t45.5 -171.5t124 -124t171.5 -45.5t171.5 45.5t124 124t45.5 171.5h86q0 -116 -57.5 -214t-155.5 -155.5t-214 -57.5t-214 57.5t-155.5 155.5t-57.5 214t57.5 214t155.5 155.5t214 57.5v-86z" />
    <glyph glyph-name="uniE623" unicode="&#xe623;" horiz-adv-x="1025" 
d="M356 662q7 7 17 7t17 -7l284 -260q7 -7 7 -18t-7 -18l-284 -260q-7 -7 -17 -7t-17 7t-7 17t7 17l267 244l-267 244q-7 7 -7 17t7 17z" />
    <glyph glyph-name="uniE624" unicode="&#xe624;" 
d="M193 333zM66 333q0 53 37 90t90 37t90 -37t37 -90t-37 -90t-90 -37t-90 37t-37 90zM511 333zM384 333q0 53 37 90t90 37t90 -37t37 -90t-37 -90t-90 -37t-90 37t-37 90zM829 332zM702 332.5q0 52.5 37 89.5t90 37t90 -37t37 -89.5t-37 -90t-90 -37.5t-90 37.5t-37 90z
" />
    <glyph glyph-name="uniE625" unicode="&#xe625;" 
d="M512 486q-42 0 -72 -30t-30 -72t30 -72t72 -30t71.5 30t29.5 72t-29.5 72t-71.5 30zM512 333q-21 0 -36 15t-15 36t15 36t36 15t35.5 -15t14.5 -36t-14.5 -36t-35.5 -15zM106 486q-42 0 -72 -30t-30 -72t30 -72t71.5 -30t71.5 30t30 72t-29.5 72t-71.5 30zM105 333
q-21 0 -35.5 15t-14.5 36t14.5 36t35.5 15t36 -15t15 -36t-15 -36t-36 -15zM918 486q-42 0 -72 -30t-30 -72t30 -72t72 -30t71.5 30t29.5 72t-29.5 72t-71.5 30zM918 333q-21 0 -36 15t-15 36t15 36t36 15t36 -15t15 -36t-15 -36t-36 -15z" />
    <glyph glyph-name="uniE626" unicode="&#xe626;" 
d="M913 384zM801 384q0 46 33 78.5t79 32.5t78.5 -32.5t32.5 -78.5t-32.5 -78.5t-78.5 -32.5t-79 32.5t-33 78.5zM512 384zM401 384q0 46 32.5 78.5t78.5 32.5t78.5 -32.5t32.5 -78.5t-32.5 -78.5t-78.5 -32.5t-78.5 32.5t-32.5 78.5zM111 384zM0 384q0 46 32.5 78.5
t78.5 32.5t79 -32.5t33 -78.5t-33 -78.5t-79 -32.5t-78.5 32.5t-32.5 78.5z" />
    <glyph glyph-name="uniE627" unicode="&#xe627;" horiz-adv-x="1054" 
d="M937 659l31 -31l-540 -540l-99 -11v-14h-24v25h13l11 98l540 540l31 -31l-509 -497v-49h24zM968 812l-62 -49l98 -98l50 61zM817 -212h-639q-74 0 -126 52t-52 126v639q0 73 52 125.5t126 52.5h549q11 0 19 -8t8 -19.5t-8 -19t-19 -7.5h-549q-51 0 -87.5 -36.5
t-36.5 -87.5v-639q0 -51 36.5 -87.5t87.5 -36.5h639q51 0 87.5 36.5t36.5 87.5v541q0 11 8 19t19 8t19 -8t8 -19v-541q0 -74 -52.5 -126t-125.5 -52z" />
    <glyph glyph-name="uniE628" unicode="&#xe628;" 
d="M883 -120h-59q-8 0 -13.5 5.5t-5.5 13.5v663q0 93 -66 159t-159 66t-158.5 -66t-65.5 -159v-439h136l-185 -214l-185 214h136v439q0 88 43.5 162t117.5 117t161.5 43t161.5 -43t117 -117t43 -162v-663q0 -8 -5.5 -13.5t-13.5 -5.5z" />
    <glyph glyph-name="uniE629" unicode="&#xe629;" 
d="M512 172q80 0 136 56t56 136v256q0 80 -56 136t-136 56t-136 -56t-56 -136v-256q0 -80 56 -136t136 -56zM864 348v0q0 20 -14 34t-34 14t-34 -14t-14 -34q0 -106 -75 -181t-181 -75t-181 75t-75 181q0 20 -14 34t-34 14t-34 -14t-14 -34v0q0 -133 87 -232t217 -116v-116
h-160q-20 0 -34 -14t-14 -34t14 -34t34 -14h416q20 0 34 14t14 34t-14 34t-34 14h-160v116q130 17 217 116t87 232z" />
    <glyph glyph-name="uniE62A" unicode="&#xe62a;" 
d="M202 182l81 52q-27 54 -27 114q0 20 -14 34t-34 14t-34 -14t-14 -34v0q0 -88 42 -166zM704 510v110q0 80 -56 136t-136 56t-136 -56t-56 -136v-256q0 -48 23 -91zM952 570q0 10 -7 17t-17 7q-7 0 -13 -4v0l-834 -545q-11 -7 -11 -20q0 -10 7 -17t17 -7q7 0 14 4v0
l833 545q11 7 11 20zM702 336l-241 -157q26 -7 51 -7q72 0 126 47t64 117zM816 396q-20 0 -34 -14t-14 -34q0 -96 -63.5 -168t-157.5 -85q-5 -1 -12 -2q-13 -1 -21 -1h-1h-1q-69 0 -129 35l-87 -56q75 -59 168 -71v-116h-160q-20 0 -34 -14t-14 -34t14 -34t34 -14h416
q20 0 34 14t14 34t-14 34t-34 14h-160v116q130 17 217 116t87 232v0q0 20 -14 34t-34 14z" />
    <glyph glyph-name="uniE62B" unicode="&#xe62b;" 
d="M416 -107l43 146q7 23 26 40l109 109q-14 5 -26 9q-3 1 -6.5 3t-8.5 8t-8 14.5t-2.5 23.5t7.5 34h-1q44 45 72 111t28 133q0 101 -58.5 158t-145 57t-145 -56.5t-58.5 -158.5q0 -68 28 -134t72 -111q6 -22 6 -36.5t-8 -25t-13.5 -14.5t-10.5 -6q-62 -23 -116 -51.5
t-93.5 -67t-39.5 -73.5v-28q0 -119 348 -124q-4 22 1 40zM814 152h-1l-33 33v1l-45 44l-204 -202q-4 -3 -6 -8l-43 -146q-3 -10 5 -18q5 -5 13 -5q2 0 5 1l146 42q4 2 8 6l204 203zM615 -16l2 -47l12 -11l-78 -23l-17 17l23 78l9 -10zM754 251l128 -128l29 27l-128 128z
M945 253l-62 61q-12 13 -30 13t-31 -13l-18 -19l122 -122l19 19q13 12 12.5 30t-12.5 31z" />
    <glyph glyph-name="uniE62C" unicode="&#xe62c;" 
d="M256 428zM192 428q0 26 19 45t45 19t45 -19t19 -45t-19 -45t-45 -19t-45 19t-19 45zM928 684h-832q-40 0 -68 -28.5t-28 -67.5v-575q0 -40 28 -68.5t68 -28.5h832q40 0 68 28.5t28 68.5v575q0 40 -28 68t-68 28zM960 -20l-192 256l-128 -128l-192 192l-384 -320v576
q0 27 19 45.5t45 18.5h768q26 0 45 -19t19 -45v-576z" />
    <glyph glyph-name="uniE62D" unicode="&#xe62d;" 
d="M795 286q46 0 86.5 -17.5t71 -48t48.5 -71t18 -86.5t-18 -86.5t-48.5 -71t-71 -48.5t-86.5 -18q-47 0 -87.5 18t-71 48.5t-48 71t-17.5 86.5t17.5 86.5t48 71t71 48t87.5 17.5zM906 28q15 0 25.5 9.5t10.5 24.5t-10.5 25.5t-25.5 10.5h-220q-15 0 -25.5 -10.5
t-10.5 -25.5t10.5 -24.5t25.5 -9.5h220zM499 -30q4 -20 13 -42.5t27 -45.5t45 -45t69 -42q-28 -6 -65 -10q-31 -4 -76 -6.5t-103 -2.5q-29 0 -67.5 2t-80.5 5.5t-82.5 8.5t-74 10.5t-57 10.5t-29.5 10q-10 8 -16 49.5t5 107.5q6 38 30 58t57.5 31.5t68.5 21t62 26.5
q22 13 33.5 25.5t16 25t4.5 25.5t-1 30q-2 23 -16 36.5t-31 28.5q-8 7 -14.5 19.5t-11.5 25.5q-5 16 -10 33q-7 2 -14 7t-13.5 14.5t-11.5 26.5q-6 17 -4.5 31.5t5.5 25.5t13 21q0 39 4 78q4 32 14.5 69.5t31.5 67.5q20 28 43.5 46.5t48 28.5t49.5 13.5t48 3.5q30 0 57.5 -7
t51 -18t41.5 -25.5t29 -28.5q27 -32 39 -71.5t17 -74.5q6 -41 6 -83q7 -5 11 -13q4 -7 6.5 -18.5t0.5 -28.5q-2 -21 -8.5 -34t-15.5 -20q-9 -8 -19 -11q-5 -17 -10 -33q-5 -13 -11.5 -25.5t-15.5 -19.5q-9 -8 -14 -16.5t-8 -16.5q-3 -7 -7 -18q-3 -9 -10 -19
q-48 -74 -55.5 -133t5.5 -115zM499 -30z" />
    <glyph glyph-name="uniE62E" unicode="&#xe62e;" 
d="M952 299h-14h-17v-77q0 -5 -1 -9q0 -2 -2 -7v-1v-1q-1 -1 -3 -5q0 -1 -0.5 -2t-1.5 -1q-2 -3 -5 -6v-1q-14 -13 -33 -13v0q-19 0 -33 13l-110 110h-5h-423q-20 0 -33.5 13.5t-13.5 32.5v464q0 19 13.5 32.5t33.5 13.5h648q19 0 32.5 -13.5t13.5 -32.5v-464
q0 -19 -13.5 -32.5t-32.5 -13.5zM713 253l98 -98q27 -26 64 -26v-31q0 -19 -13.5 -32.5t-32.5 -13.5h-326h-107h-46h-12l-125 -125q-14 -14 -33 -14h-1q-18 0 -32 14v0q-3 3 -5 6l-2 2v1q-2 4 -3 5v2v1q-2 4 -2 6q-1 5 -1 9v93h-8h-54q-19 0 -32.5 13.5t-13.5 32.5v525
q0 20 13.5 33.5t32.5 13.5h139v-325q0 -38 27 -65t66 -27h409z" />
    <glyph glyph-name="uniE62F" unicode="&#xe62f;" 
d="M320 444v-63q0 -79 56 -135.5t136 -56.5q28 0 55 8zM698 332q6 24 6 49v257q0 79 -56 135.5t-136 56.5q-62 0 -112 -36t-70 -94zM953 -57q-9 -9 -22.5 -9t-23.5 9l-832 832q-9 10 -9 23.5t9 22.5t22.5 9t23.5 -9l832 -832q9 -10 9 -23.5t-9 -22.5zM808 222q57 88 57 193
v128q0 14 -9.5 23t-23 9t-22.5 -9t-9 -23v-128q0 -78 -40 -146zM736 -2h-192v64q65 6 123 35l-48 48q-51 -21 -107 -21q-119 0 -204 85.5t-85 205.5v128q0 14 -9 23t-22.5 9t-23 -9t-9.5 -23v-128q0 -138 93 -239.5t228 -113.5v-64h-192q-14 0 -23.5 -9.5t-9.5 -22.5
t9.5 -22.5t23.5 -9.5h448q14 0 23.5 9.5t9.5 22.5t-9.5 22.5t-23.5 9.5z" />
    <glyph glyph-name="uniE630" unicode="&#xe630;" horiz-adv-x="1025" 
d="M736 669q79 0 135.5 -54t56.5 -131t-33 -154t-79.5 -133.5t-109 -111t-106.5 -84.5t-88 -56q-44 26 -88 56t-106.5 84.5t-108.5 111t-79.5 133.5t-33.5 154t56.5 131t135.5 54q92 0 149 -69q14 -16 34.5 -25t40.5 -9q46 0 75 34q57 69 149 69zM736 761
q-67 0 -125.5 -27.5t-98.5 -75.5q-40 48 -98.5 75.5t-125.5 27.5q-119 0 -203.5 -81t-84.5 -196q0 -75 25.5 -149.5t64.5 -134t91.5 -115.5t101.5 -95.5t100 -73.5t80 -50.5t49 -26.5q20 10 49 26.5t80 50.5t100 73.5t101.5 95.5t91.5 115.5t64.5 134t25.5 149.5
q0 115 -84.5 196t-203.5 81z" />
    <glyph glyph-name="uniE631" unicode="&#xe631;" 
d="M900 643q-81 84 -195 84q-107 0 -187 -75l-6 -6l-6 6q-80 75 -187 75q-114 0 -195 -84q-81 -83 -81 -201.5t81 -202.5l331 -341q23 -25 57 -25t57 25q328 337 331 341q81 84 81 202.5t-81 201.5zM871 269l-331 -341q-12 -12 -28.5 -12t-27.5 12l-331 341q-69 71 -69 172
t69 173q69 70 166 70q91 0 159 -63l34 -32l34 32q68 63 159 63q97 0 166 -70q69 -72 69 -173t-69 -172zM290 599h-2q-49 -1 -83 -36t-34 -84q0 -8 5.5 -14t14 -6t14 6t5.5 14q0 33 23.5 56.5t56.5 23.5q9 0 14.5 6t5.5 14t-5.5 14t-14.5 6z" />
    <glyph glyph-name="uniE632" unicode="&#xe632;" 
d="M484 -144l-387 387q-63 63 -83 141q-21 78 5 157q24 71 78 124q55 53 126 77q80 25 162 4q69 -18 127 -66q58 48 127 66q80 21 162 -4q71 -24 126 -77q55 -55 78 -124v0q26 -79 5 -157t-83 -140l-2 -2l-385 -386q-12 -11 -28 -11t-28 11v0zM558 616v0l-125 -125
q-6 -6 -16 -6t-17 6q-7 7 -7 16.5t7 17.5l79 79l-1 1q-52 50 -113 66q-59 15 -118 -4q-54 -17 -95 -57q-42 -41 -59 -94q-19 -56 -4 -112q15 -58 63 -105l360 -360l358 358l2 2q48 48 63 105q15 55 -4 112q-17 53 -59 93q-42 42 -95 58q-60 19 -118 3q-53 -13 -101 -54z" />
    <glyph glyph-name="uniE633" unicode="&#xe633;" 
d="M62 57zM674 668l-110 -202q-44 -81 -53 -110h-3q-30 70 -163 312h-103l192 -330h-158v-73h185v-100h-185v-74h185v-146h92v146h178v74h-178v100h178v73h-153l194 330h-98zM957 57z" />
    <glyph glyph-name="uniE634" unicode="&#xe634;" 
d="M1017 500l-349 49l-157 307l-156 -307l-349 -49l253 -239l-60 -337l312 160l313 -160l-60 337z" />
    <glyph glyph-name="uniE635" unicode="&#xe635;" 
d="M727 862q-122 0 -215 -99q-41 46 -97.5 72.5t-117.5 26.5q-81 0 -149 -43t-108 -116t-40 -159v-17v-3q0 -46 20 -102v-4q26 -63 80.5 -134t113 -127.5t114 -103.5t90.5 -73t36 -26q23 -18 54.5 -18t54.5 18q12 8 32 23t76 61t105 92t104.5 110.5t88.5 123.5l11 20
q0 2 1.5 3.5t1.5 3.5v3q14 28 17 41q17 43 17 89v7v13q4 86 -34.5 159t-106.5 116t-149 43z" />
    <glyph glyph-name="uniE636" unicode="&#xe636;" 
d="M771 -100q-20 0 -42 10q-73 37 -215 109l-216 -108q-28 -13 -54 -9.5t-43 22.5q-24 26 -20 69q10 93 29 235q-113 126 -178 205q-29 35 -13 74q16 44 69 52q70 14 229 44q74 136 126 229q33 64 72 64h6l12 -4q26 -9 53 -60q47 -86 124 -229q149 -29 227 -44
q24 -4 42.5 -18t25.5 -34q16 -40 -12 -74q-60 -73 -176 -206q19 -147 28 -234q4 -44 -20 -70q-21 -23 -54 -23zM515 84l26 -13q132 -67 214 -109q6 -2 12.5 -2.5t10 0.5t4.5 2q6 7 5 25q-10 94 -30 244v2l-2 13l9 10l4 5q5 5 12 13.5t17 20t22 25t25 28.5t27 31t27 31l26 32
q13 15 23 28q7 8 4 16q-5 12 -24 15l-242 47l-13 3l-7 12l-21 40q-22 40 -54.5 100t-54.5 101q-12 21 -21 31q-10 -13 -19 -30l-133 -242l-6 -12l-14 -3q-148 -28 -244 -46q-20 -4 -25 -16q-3 -8 4 -16q85 -102 185 -213l9 -10l-1 -14l-1 -5q-1 -5 -2 -14.5t-3 -22t-4 -28
t-4 -32.5t-4 -35.5t-4.5 -36.5t-4.5 -37t-4 -35q-1 -16 5 -23q1 -2 4.5 -3t10.5 -0.5t13 3.5zM515 84z" />
    <glyph glyph-name="uniE637" unicode="&#xe637;" horiz-adv-x="1073" 
d="M1070 508v1v1h-1v1q-6 17 -24 22l-297 95l-182 252q-11 15 -29 16h-2h-1q-18 -1 -28 -16l-182 -252l-298 -96q-17 -5 -24 -23v-1q0 -1 -1 -1q-5 -18 7 -32l184 -251l-1 -312q0 -18 14 -30h1v-1h1q15 -11 33 -5l297 98l296 -97q18 -6 33 4v1h1h1v1q14 11 14 30l-1 312
l183 251q11 14 6 32z" />
    <glyph glyph-name="uniE638" unicode="&#xe638;" 
d="M930 529l-1 1q-3 0 -15.5 4t-20.5 6t-35.5 5.5t-62 5t-97 3t-143.5 1.5q6 20 16.5 46t14.5 38.5t7.5 34.5t3.5 51q0 67 -42 128q-19 27 -34.5 35t-51.5 8q-4 0 -8 -1t-7 -2t-6 -3.5t-5 -4t-4.5 -5t-4 -5.5t-3.5 -6.5t-3 -6t-3 -7t-3 -6.5q-71 -162 -136 -249
q-38 -50 -55 -81h-129q-24 0 -41.5 -12.5t-17.5 -29.5v-513q0 -18 17.5 -30t41.5 -12h137h8q50 -9 130 -27q103 -23 201 -23h195q54 0 75 36q30 44 61 129q62 173 71 399q1 22 1 23q0 50 -51 70zM128 434h85v-427h-85v427zM895 445v-5q-9 -214 -67 -374q-25 -72 -50 -109h-5
h-195q-89 0 -182 21q-55 13 -97 21v466q10 24 55 84q69 91 137 245q21 -34 21 -69q0 -30 -3.5 -44.5t-14.5 -43.5q-13 -32 -20 -55q-14 -42 11.5 -77.5t69.5 -35.5q284 0 336 -17q2 -1 5 -2q0 -1 -1 -4v-1z" />
    <glyph glyph-name="uniE639" unicode="&#xe639;" 
d="M947 422q20 20 11.5 46t-36.5 31l-237 32q-26 13 -32 26l-103 211q-9 24 -38 24t-38 -24l-103 -211q-13 -26 -32 -26l-237 -32q-28 -5 -36.5 -28t11.5 -42l166 -167q13 -12 13 -38l-38 -237q-5 -24 17.5 -41.5t46.5 -3.5l211 109q19 10 38 0l211 -109q25 -14 47 1.5
t17 43.5l-38 231q0 25 13 38zM736 301q-32 -32 -32 -83v-7l26 -166q0 -9 -7.5 -13.5t-12.5 0.5l-153 77q-26 13 -51 13q-20 0 -45 -13l-154 -77q-12 -6 -19 4q-3 5 0 9l32 173v6q0 51 -32 83l-115 115q-5 5 -1 13t14 13l160 19q27 0 49.5 19t33.5 45l70 147q5 10 13 10
t13 -10l70 -147q13 -38 71 -57q20 -6 64.5 -12.5t79.5 -9.5l35 -4q10 0 12.5 -8t-6.5 -18z" />
    <glyph glyph-name="uniE63A" unicode="&#xe63a;" 
d="M761 721h-93l-105 -193q-42 -79 -52 -105h-2q-27 63 -156 298h-99l184 -316h-151v-69h177v-97h-177v-70h177v-140h87v140h171v70h-171v97h171v69h-146z" />
    <glyph glyph-name="uniE63B" unicode="&#xe63b;" 
d="M864 513h-189q12 28 19.5 83.5t0.5 107.5q-5 45 -30 77.5t-63 45.5q-28 10 -56 6t-44 -21q-12 -12 -22 -35t-15 -41t-13 -53q-17 -70 -28 -88q-21 -35 -58 -58.5t-51 -23.5h-90q-13 0 -22.5 -9.5t-9.5 -22.5v-450q0 -13 9.5 -22.5t22.5 -9.5h87q8 0 45 -16t91 -32
t105 -16h215q33 0 68.5 13t51 39t43.5 208.5t28 220.5q0 39 -30.5 68t-64.5 29zM97 513q-13 0 -22 -9.5t-9 -22.5v-450q0 -13 9 -22.5t22.5 -9.5t22.5 9.5t9 22.5v450q0 13 -9 22.5t-23 9.5z" />
    <glyph glyph-name="uniE63C" unicode="&#xe63c;" 
d="M464.5 748q-108.5 0 -201 -53.5t-146 -146t-53.5 -201t53.5 -201t146 -146t201 -53.5t201 53.5t146 146t53.5 201t-53.5 201t-146 146t-201 53.5zM693.5 118.5q-94.5 -94.5 -229 -94.5t-229 94.5t-94.5 229t94.5 229t229 94.5t229 -94.5t94.5 -229t-94.5 -229zM947 -81
l-91 91q-11 12 -27.5 12t-28.5 -12q-12 -11 -12 -27.5t12 -28.5l91 -91q10 -10 26.5 -10t29 10t12.5 27t-12 29z" />
    <glyph glyph-name="uniE63D" unicode="&#xe63d;" 
d="M941.5 -167.5q-23.5 -23.5 -57 -23.5t-56.5 24l-162 162q-1 0 -2 1v1q-92 -51 -197 -51q-110 0 -204 54.5t-148.5 148.5t-54.5 204.5t54.5 204.5t148.5 148.5t204.5 54.5t204 -54.5t148 -148.5t54.5 -205q0 -141 -88 -252l155 -155q24 -23 24 -56.5t-23.5 -57zM467 639
q-118 0 -201.5 -83.5t-83.5 -202t83.5 -202t201.5 -83.5t202 83.5t84 202t-84 202t-202 83.5z" />
    <glyph glyph-name="uniE63E" unicode="&#xe63e;" horiz-adv-x="1025" 
d="M1013 -145l-202 199q112 129 112 299q0 93 -36.5 178t-98.5 146.5t-147.5 98t-179 36.5t-179 -36.5t-147.5 -98t-98.5 -146.5t-36.5 -178t36.5 -178t98.5 -146.5t147.5 -98t178.5 -36.5q101 0 194 43l3 2t4 3q17 17 17 31q0 16 -10 26.5t-26 9.5q-2 0 -11 -4t-16 -7
l-8 -4q-71 -29 -147 -29q-106 0 -196 52t-142 141.5t-52 195t52 194.5t142 141t196.5 52t196 -52t142 -141t52.5 -195q0 -145 -96 -255q-18 3 -30 -9t-10 -30q-3 -3 47 -57l201 -197q10 -10 24.5 -10t25 10.5t10.5 25t-11 24.5z" />
    <glyph glyph-name="uniE63F" unicode="&#xe63f;" 
d="M1009 297l-464 463q-13 14 -32.5 14t-33.5 -14l-463 -463q-14 -14 -14 -33.5t13.5 -33t31 -13.5t31.5 14l59 61v-412q0 -19 17.5 -36.5t36.5 -17.5h646q18 0 28.5 15t10.5 39v411l63 -60q14 -14 35 -14q20 0 34 14t14 33t-13 33zM436 100q0 9 11 14.5t23 5.5h88
q11 0 15 -4.5t4 -15.5v-181h-141v181zM558 213h-88q-51 0 -87 -31q-40 -32 -40 -82v-181h-112v464l276 278l276 -278v-464h-112v181q0 50 -31.5 81.5t-81.5 31.5z" />
    <glyph glyph-name="uniE640" unicode="&#xe640;" 
d="M536 712q-10 9 -23.5 9t-22.5 -10v-1l-441 -385q-22 -19 -2 -41q9 -10 24 -10h125v-372q0 -22 15.5 -37.5t37.5 -15.5h131q22 0 37.5 15.5t15.5 37.5v184h158v-184q0 -22 15.5 -37.5t37.5 -15.5h131q22 0 37.5 15.5t15.5 37.5v346h126q14 0 23 10q20 21 -2 41zM536 712z
" />
  </font>
</defs>
</svg>
