<?xml version="1.0" standalone="no"?>
<!DOCTYPE svg PUBLIC "-//W3C//DTD SVG 1.1//EN" "http://www.w3.org/Graphics/SVG/1.1/DTD/svg11.dtd" >
<svg xmlns="http://www.w3.org/2000/svg">
<metadata>
Created by FontForge 20120731 at Wed Dec 23 10:31:15 2015
 By Ads
</metadata>
<defs>
<font id="iconfont" horiz-adv-x="1024" >
  <font-face 
    font-family="iconfont"
    font-weight="500"
    font-stretch="normal"
    units-per-em="1024"
    panose-1="2 0 6 3 0 0 0 0 0 0"
    ascent="896"
    descent="-128"
    x-height="792"
    bbox="0 -214 1329.8 812.509"
    underline-thickness="50"
    underline-position="-100"
    unicode-range="U+0078-E634"
  />
<missing-glyph horiz-adv-x="374" 
d="M34 0v682h272v-682h-272zM68 34h204v614h-204v-614z" />
    <glyph glyph-name=".notdef" horiz-adv-x="374" 
d="M34 0v682h272v-682h-272zM68 34h204v614h-204v-614z" />
    <glyph glyph-name=".null" horiz-adv-x="0" 
 />
    <glyph glyph-name="nonmarkingreturn" horiz-adv-x="341" 
 />
    <glyph glyph-name="x" unicode="x" horiz-adv-x="1001" 
d="M281 543q-27 -1 -53 -1h-83q-18 0 -36.5 -6t-32.5 -18.5t-23 -32t-9 -45.5v-76h912v41q0 16 -0.5 30t-0.5 18q0 13 -5 29t-17 29.5t-31.5 22.5t-49.5 9h-133v-97h-438v97zM955 310v-52q0 -23 0.5 -52t0.5 -58t-10.5 -47.5t-26 -30t-33 -16t-31.5 -4.5q-14 -1 -29.5 -0.5
t-29.5 0.5h-32l-45 128h-439l-44 -128h-29h-34q-20 0 -45 1q-25 0 -41 9.5t-25.5 23t-13.5 29.5t-4 30v167h911zM163 247q-12 0 -21 -8.5t-9 -21.5t9 -21.5t21 -8.5q13 0 22 8.5t9 21.5t-9 21.5t-22 8.5zM316 123q-8 -26 -14 -48q-5 -19 -10.5 -37t-7.5 -25t-3 -15t1 -14.5
t9.5 -10.5t21.5 -4h37h67h81h80h64h36q23 0 34 12t2 38q-5 13 -9.5 30.5t-9.5 34.5q-5 19 -11 39h-368zM336 498v228q0 11 2.5 23t10 21.5t20.5 15.5t34 6h188q31 0 51.5 -14.5t20.5 -52.5v-227h-327z" />
    <glyph glyph-name="uniE600" unicode="&#xe600;" 
d="M930 -8v516q0 14 -3.5 24t-8.5 16t-11.5 10t-12.5 6t-11 2.5t-9 0.5h-3h-25h-61q-44 0 -82 -0.5t-77 -0.5t-60 0.5t-16 0.5q-6 0 -11 1t-8.5 2.5t-6 3t-3.5 2.5l-1 1q-14 29 -39 67q-8 11 -16.5 18.5t-15 10t-12.5 4t-9 0.5h-4h-257q-59 0 -71 -56l-1 -13v-612
q0 -22 6 -36.5t14 -20t17 -9t14.5 -2t5.5 0.5h724q50 0 54 50q1 13 0 13zM864 37q0 -18 -12.5 -30.5t-30.5 -12.5h-618q-12 0 -21.5 5.5t-15.5 15.5t-6 22v421q0 9 3.5 17t9.5 13.5t13.5 9t16.5 3.5h618q18 0 30.5 -12.5t12.5 -30.5v-421zM555 324h-241v-153h241v-64
l177 141l-177 140v-64z" />
    <glyph glyph-name="uniE601" unicode="&#xe601;" 
d="M717 530h-410q-10 0 -17.5 -7.5t-7.5 -17.5v-103h51v77h358v-358h-358v77h-51v-103q0 -7 3 -13t9 -9t13 -3h410q10 0 17.5 7.5t7.5 17.5v410q0 10 -7.5 17.5t-17.5 7.5zM492 192l89 90q5 5 7 11.5t0 13t-7 11.5l-89 90q-3 3 -7 4.5t-7.5 2t-7.5 0t-8 -2t-7 -4.5
q-4 -5 -6 -11.5t0 -13.5t6 -12l46 -45h-194q-7 0 -13 -3.5t-9 -9.5t-3 -13q0 -11 7.5 -18.5t17.5 -7.5h194l-46 -45q-7 -8 -7 -18.5t7 -18.5q5 -5 12 -6.5t13.5 0t11.5 6.5z" />
    <glyph glyph-name="uniE602" unicode="&#xe602;" 
d="M286 435q-23 0 -39.5 -17t-16.5 -41t16.5 -41t40 -17t39.5 17t16 41q0 16 -7.5 29t-20 21t-28.5 8zM511 435q-23 0 -39.5 -17t-16.5 -41q0 -16 7.5 -29.5t20.5 -21t28 -7.5q23 0 39.5 17t16.5 41q0 16 -7.5 29t-20.5 21t-28 8zM736 435q-24 0 -40.5 -17t-16.5 -41
t16.5 -41t40.5 -17q9 0 17.5 2.5t15.5 8t12 13t8 16t3 18.5q0 37 -33 53q-11 5 -23 5zM848 726h-674q-15 0 -29.5 -4t-27 -11.5t-23 -18.5t-17.5 -23.5t-11 -27.5t-4 -31v-437q0 -49 34 -86.5t81 -37.5h171q13 -14 51.5 -54t70.5 -73l31 -32q10 -11 20 0q90 102 149 159h175
q47 0 81 37.5t34 86.5v437q0 31 -15 58t-41 42.5t-56 15.5zM904 173q0 -16 -8 -31.5t-21.5 -25t-29.5 -9.5h-172q-3 0 -6.5 -1t-6.5 -2t-6 -2.5t-6 -3.5t-5 -3.5t-4 -3.5l-3 -3l-2 -2v-1l-121 -125l-121 125q-23 22 -43 22h-172q-24 0 -41.5 20.5t-17.5 45.5v437
q0 12 4.5 22.5t12 18.5t18 12.5t21.5 4.5h674q5 0 9.5 -0.5t8.5 -2t8 -4t7.5 -5t6.5 -5.5t5.5 -6.5t4.5 -7.5t3.5 -8.5t2 -9t0.5 -9.5v-437z" />
    <glyph glyph-name="uniE603" unicode="&#xe603;" 
d="M979 -132l-269 268q87 104 87 239q0 102 -50 188t-136.5 136t-187.5 50q-51 0 -99.5 -13.5t-89.5 -37.5t-75.5 -58.5t-59 -75.5t-38 -89.5t-13.5 -99.5q0 -101 50.5 -187.5t136.5 -136.5t188 -50q135 0 239 86l268 -268zM88 375q0 68 26.5 130t71.5 107t107 71.5
t130 26.5t130 -26.5t106.5 -71.5t71 -107t26.5 -130t-26.5 -130t-71 -106.5t-106.5 -71t-130 -26.5q-91 0 -168 44.5t-122 121.5t-45 168z" />
    <glyph glyph-name="uniE604" unicode="&#xe604;" 
d="M280 7h5h-5zM748 7h6h-6zM555 228h-1v-1zM689 614h-2h2zM747 7h-2h2zM689 7h-2h2zM689 614h-2h2zM901 549q0 8 -6 14t-14 6q-5 0 -9 -2t-7 -5l-347 -340h-1q-5 -6 -5 -14t6 -13.5t14 -5.5t14 5h1l348 341q3 2 4.5 6t1.5 8zM545 226v1v-1zM814 317q-3 0 -6.5 -1t-6 -3
t-4.5 -4t-3.5 -5t-2.5 -6v-4v-2v-3v-282h-104h-359h-103v568h557h1h1q10 0 17 6.5t7 15.5q0 4 -2 8q-1 5 -5 9q-7 7 -16 6h-93h-2h-396h-96h-1q-2 0 -3.5 -0.5t-3.5 -1t-3.5 -1.5t-2.5 -3q-6 -6 -6 -14v-2v-303v-2v-310q0 -4 1.5 -8.5t4.5 -7.5q5 -5 13 -6h1h618v1
q9 -1 15 5t6 15v0v1v307v4q0 9 -6.5 16t-16.5 7zM689 614h-2h2zM555 228h-1v-1zM586 197h-1h1z" />
    <glyph glyph-name="uniE605" unicode="&#xe605;" 
d="M902 -148h-293q-23 0 -40 16.5t-17 39.5v291q0 23 17 41.5t40 18.5h293q23 0 40 -18.5t17 -41.5v-291q0 -11 -4.5 -21.5t-12.5 -18t-18.5 -12t-21.5 -4.5zM898 199h-284v-286h284v286zM902 340h-293q-5 0 -10 1t-9.5 2.5t-9 4.5t-8 6t-7 7t-5.5 8t-4 9t-3 10t-1 10v291
q0 10 3 18.5t8.5 16t12 13t15.5 8.5t18 3h293q23 0 40 -17.5t17 -41.5v-291q0 -15 -7.5 -28.5t-21 -21.5t-28.5 -8zM898 686h-284v-285h284v285zM415 -148h-295q-23 0 -39 16.5t-16 39.5v291q0 23 16.5 41.5t38.5 18.5h295q7 0 14.5 -2t13.5 -6.5t11.5 -10t9 -12.5
t5.5 -14.5t2 -14.5v-291q0 -35 -32 -50q-12 -6 -24 -6zM410 199h-285v-285h285v285zM415 340h-295q-23 0 -39 17t-16 41v291q0 24 16 41.5t39 17.5h295q15 0 28 -8t20.5 -21.5t7.5 -29.5v-291q0 -35 -31 -52q-13 -6 -25 -6z" />
    <glyph glyph-name="uniE606" unicode="&#xe606;" 
d="M960 611h-480v58q0 27 -18.5 45.5t-45.5 18.5h-352q-17 0 -32 -8.5t-23.5 -23.5t-8.5 -32v-762q0 -17 8.5 -32t23.5 -23.5t32 -8.5h896q27 0 45.5 18.5t18.5 45.5v640q0 17 -8.5 32t-23.5 23.5t-32 8.5zM96 685h288q18 0 28.5 -4.5t15 -15t4.5 -28.5v-74h496
q18 0 28.5 -4.5t15 -15t4.5 -28.5v-89h-928v211q0 27 10.5 37.5t37.5 10.5zM928 -109h-832q-11 0 -18.5 1.5t-13.5 5t-9.5 9.5t-5 13.5t-1.5 18.5v439h928v-439q0 -13 -2.5 -22t-8.5 -15t-15 -8.5t-22 -2.5z" />
    <glyph glyph-name="uniE607" unicode="&#xe607;" 
d="M52 611v-618q0 -8 0.5 -12t5.5 -9t16 -5h875q3 0 7 0.5t10.5 9t6.5 23.5v590q0 13 -1 19.5t-3 12t-8 7.5t-13.5 3t-21.5 1h-855q-12 0 -16 -4t-3 -18zM98 52l262 208l65 -58q40 -34 87.5 -34t86.5 34l66 57l262 -207v-39h-829v39zM927 110l-227 180l227 198v-378z
M927 549l-358 -312q-27 -23 -57 -23t-56 23l-91 79l-3 4l-1 -1l-263 230v38h829v-38zM98 488l226 -198l-226 -179v377z" />
    <glyph glyph-name="uniE608" unicode="&#xe608;" 
d="M435 608q8 -10 23 -17t29 -7h92q10 0 19.5 3t18.5 9t14 12l71 92q12 15 5 29q-8 15 -28 15h-291q-21 0 -29 -15q-6 -14 5 -29zM671 712l-65 -84q-10 -12 -27 -12h-92q-7 0 -15 4t-11 8l-65 84h275zM723 52l-119 431q-4 15 -17 25.5t-29 10.5h-50q-10 0 -19.5 -5
t-16.5 -13t-10 -18l-119 -431q-4 -14 0 -30.5t13 -26.5l149 -167q11 -13 28 -13t28 13l149 167q10 10 13.5 26.5t-0.5 30.5zM686 16l-149 -167q-4 -5 -8 0l-149 167q-11 12 -6 27l119 432q1 3 3.5 5.5t5.5 4.5t6 2h50q5 0 9.5 -4t5.5 -8l119 -432q5 -15 -6 -27z" />
    <glyph glyph-name="uniE609" unicode="&#xe609;" 
d="M929 -52l-128 185q-16 26 -45 32.5t-52 -10.5l-84 -53h-9l-4 -4q-4 0 -9.5 1.5t-18 10.5t-28 23.5t-40.5 44.5t-54 69q-98 147 -84 203q4 0 6.5 1t2.5 3v1l88 57q24 14 31 42t-9 55l-123 176v5q-22 17 -57 17q-54 0 -111 -44l-8 -4q-70 -107 -91 -244q-2 -12 -2 -16v-5
v-4q35 -165 154 -344l44 -62q119 -173 256 -264l5 -5l10 -3l26 -6q16 -4 36.5 -8t48.5 -6.5t55 -2.5q35 0 97 9l9 4q31 20 51 42t27.5 40t10 32.5t0.5 23.5zM819 -154q-53 -8 -84 -8q-93 0 -159 22q-42 29 -79.5 63t-71.5 73.5t-53.5 64.5t-50.5 67l-14 18q-35 55 -58 93
t-56 112t-49 143q24 144 84 234q69 51 110 31l119 -177q14 -20 -9 -35l-83 -53q-1 0 -5 -3.5t-7 -6.5t-7.5 -8.5t-7.5 -12.5q-27 -74 88 -246q60 -87 104.5 -127.5t80.5 -40.5q27 0 36 18l79 53q20 13 35 -9l124 -177q0 -48 -66 -88z" />
    <glyph glyph-name="uniE60A" unicode="&#xe60a;" 
d="M358 -210q-115 0 -195 80t-80.5 194t78.5 195q3 4 219 221l220 219q60 59 144.5 59.5t144.5 -59.5q11 -12 20.5 -25t17 -27t12 -29t7 -31t2.5 -32q0 -27 -7 -53t-20 -49t-33 -42l-441 -441q-38 -35 -88.5 -34t-86.5 37t-37 86.5t34 87.5q3 4 392 391q10 9 23 9t22.5 -9.5
t9.5 -22.5t-9 -23q-372 -368 -392 -388q-16 -18 -15.5 -43t18 -42.5t42.5 -18.5t43 16l440 440q41 41 41 99t-40 99q-41 41 -99.5 41t-99.5 -41q-12 -13 -439 -440q-60 -62 -59.5 -149.5t62 -149t149 -62t149.5 59.5l5 5l381 380q9 10 22.5 10t22.5 -9.5t9 -22.5t-9 -23
l-383 -383q-41 -39 -92 -59.5t-105 -20.5z" />
    <glyph glyph-name="uniE60B" unicode="&#xe60b;" 
d="M331 300h52v-310h-52v310zM641 300h52v-310h-52v310zM486 403h52v-413h-52v413zM331 765h362v-52h-362v52zM331 713h52v-103h-52v103zM641 713h52v-103h-52v103zM73 610h878v-52h-878v52zM176 558h52v-723h-52v723zM796 558h52v-723h-52v723zM228 -113h568v-52h-568v52z
" />
    <glyph glyph-name="uniE60C" unicode="&#xe60c;" 
d="M511 798q-136 0 -251 -57.5t-181.5 -156t-66.5 -214.5q0 -97 50 -184.5t142 -149.5q13 -9 27.5 -6t22.5 15t5.5 26.5t-15.5 23.5q-77 52 -119 124t-42 151q0 73 34 139t91 113.5t136.5 76t166.5 28.5q116 0 214.5 -48t156 -130t57.5 -179q0 -32 -7 -63.5t-20 -60.5
t-31.5 -55.5t-42.5 -49.5t-51.5 -43t-59.5 -35.5t-66.5 -26.5t-72.5 -16.5t-77 -5.5h-3l-3 -1q-13 2 -24.5 -4t-15.5 -19q-10 -28 -105 -82q19 65 4 88q-6 8 -15 13t-19 5q-9 0 -17.5 -5t-13 -13t-4.5 -18v-4q0 -3 1 -5t1.5 -4.5t2.5 -4.5q-7 -36 -37 -111q-4 -10 -2 -20.5
t10 -18.5q3 -3 7 -5.5t8.5 -3.5t9.5 -1q7 0 14 3q32 14 64.5 31t78.5 49t66 60q134 2 247 59.5t178.5 155.5t65.5 212q0 50 -13 98t-37.5 90t-59 79.5t-77.5 66.5t-92.5 50t-105.5 32.5t-114 11.5zM320 438q-18 0 -32.5 -9t-23.5 -23.5t-9 -31.5q0 -27 19 -46t46 -19
q17 0 31.5 9t23.5 23.5t9 32.5q0 13 -5.5 24.5t-14 20t-20 14t-24.5 5.5zM512 438q-27 0 -45.5 -19t-18.5 -45.5t18.5 -45.5t45 -19t45.5 19t19 45.5t-19 45.5t-45 19zM704 438q-26 0 -45 -19t-19 -45.5t19 -45.5t45 -19q18 0 32.5 9t23 23.5t8.5 32.5q0 26 -18.5 45
t-45.5 19z" />
    <glyph glyph-name="uniE60D" unicode="&#xe60d;" 
d="M449 219q119 0 198.5 62.5t77.5 160.5q0 88 -81.5 150t-199.5 62t-201 -62t-83 -150q0 -58 28.5 -110t82.5 -80v-1q0 -30 -37 -94q-1 -3 -1 -6q0 -7 4.5 -11.5t11.5 -4.5h3h1q26 4 60.5 23t58.5 37t31 27q14 -3 31 -3h7h8zM385 266l-28 -23q-5 -6 -23.5 -20.5
t-35.5 -25.5q7 19 10.5 32.5t3.5 18.5l1 4l2 27l-24 12q-43 22 -65 64t-22 87q0 70 70 119t170 49t169 -49t69 -119q0 -78 -66 -129t-166 -51h-6q-4 0 -15 0.5t-20 2.5zM856 266q0 30 -8 54.5t-26 45.5t-46 38q-2 -20 -11 -47q18 -13 28.5 -27t15 -29t4.5 -35
q0 -35 -17.5 -61t-55.5 -45l-22 -11q3 -56 6 -70q-9 6 -16.5 13t-13.5 12t-10.5 10.5t-7.5 9t-5 6.5t-3 5l-1 1l-23 -3l-33 -2q-44 0 -78 10.5t-63 33.5l-62 -1q22 -27 52 -46t68.5 -29.5t82.5 -10.5h7h5h9q4 0 8.5 0.5t9.5 1.5q8 -9 24.5 -24t44 -32.5t49.5 -20.5h1h3
q5 0 9.5 4t4.5 10q0 2 -2 5q-7 13 -15 41t-8 47v1v1q95 48 95 144z" />
    <glyph glyph-name="uniE60E" unicode="&#xe60e;" 
d="M647 93h-392q-5 0 -9.5 1.5t-7.5 5t-5 8t-2 9.5q0 10 7 17.5t17 7.5h392q10 0 17 -7.5t7 -17.5q0 -7 -3 -12.5t-9 -8.5t-12 -3zM647 215h-392q-7 0 -12.5 3t-8.5 9t-3 12.5t3 12t8.5 9t12.5 3.5h392q10 0 17 -7t7 -18q0 -5 -2 -9.5t-5 -7.5t-7.5 -5t-9.5 -2zM353 460
q-10 0 -17 7t-7 17t7 17.5t17 7.5h196q6 0 12 -3.5t9 -9t3 -12.5q0 -10 -7 -17t-17 -7h-196zM671 362q0 -7 -3 -12.5t-9 -9t-12 -3.5h-392q-7 0 -12.5 3.5t-8.5 9t-3 12.5q0 10 7 17t17 7h392q10 0 17 -7t7 -17zM867 -79h-710q-40 0 -69 29t-29 69v563q0 41 29 69.5t69 28.5
h588q40 0 68.5 -28.5t28.5 -69.5v-514q-1 -4 -4 -8t-6.5 -7t-7.5 -5t-9 -3t-9 -1q-12 0 -22.5 7t-14.5 17v490q0 13 -6.5 24t-18 17.5t-24.5 6.5h-538q-21 0 -35 -14t-14 -34v-514q0 -21 14 -35t35 -14h660q21 0 35 14t14 35v538q3 7 8.5 12.5t13 8.5t15.5 3q12 0 22.5 -6.5
t14.5 -17.5v-563q0 -26 -13 -49t-35.5 -36t-49.5 -13zM867 -79z" />
    <glyph glyph-name="uniE60F" unicode="&#xe60f;" 
d="M960 -148h-896v896h896v-896zM904 -92v784h-784v-784h784zM428 496v56h392v-56h-392zM344 552v-56h-140v56h140zM428 272v56h392v-56h-392zM344 328v-56h-140v56h140zM428 48v56h392v-56h-392zM344 104v-56h-140v56h140z" />
    <glyph glyph-name="uniE610" unicode="&#xe610;" 
d="M910 388l-265 38l-119 241l-119 -241l-265 -38l192 -188l-45 -264l237 124l237 -124l-45 264zM526 119l-168 -89l31 188l-136 133l189 27l84 171l84 -171l188 -27l-136 -133l32 -188z" />
    <glyph glyph-name="uniE611" unicode="&#xe611;" 
d="M1019 329q-96 120 -229 185t-278.5 65t-278 -65t-228.5 -184q-1 -2 -2 -3.5t-1.5 -3.5t-1 -3.5t-0.5 -3.5v-29q0 -4 1.5 -7.5t3.5 -6.5q96 -119 228.5 -184t278.5 -65q96 0 188.5 29t173.5 85.5t145 135.5q5 6 5 14v27q0 4 -1.5 7.5t-3.5 6.5zM979 296
q-22 -27 -46.5 -51.5t-51.5 -45.5t-55.5 -39t-58 -32.5t-61 -25.5t-63.5 -18.5t-65 -11.5t-66 -4q-134 0 -256 59.5t-211 167.5v13q89 108 211 167.5t255.5 59.5t256 -59.5t211.5 -168.5v-11zM512 473q-35 0 -66.5 -13.5t-54.5 -36.5t-36.5 -55t-13.5 -66q0 -47 23 -86.5
t62.5 -62.5t85.5 -23q39 0 74 17q8 4 11.5 12.5t-0.5 17t-13 11.5t-17 -1q-26 -12 -55 -12q-52 0 -89.5 37t-37.5 89.5t37.5 89.5t89.5 37q26 0 49.5 -10t40.5 -27t27 -40.5t10 -48.5q0 -9 -1.5 -18t-3.5 -17q-3 -9 1.5 -17t13.5 -10.5t17 1.5t11 13q2 8 3.5 16t2 15.5
t0.5 16.5q0 70 -50 120.5t-121 50.5zM431 333q0 -3 -1 -5t-1.5 -4t-1 -4.5t-1 -4.5t-0.5 -5v-4v-4q0 -3 1.5 -6t4 -4.5t5.5 -1.5q4 0 7.5 3.5t3.5 8.5q0 12 4 23q7 18 23.5 29.5t36.5 11.5q5 0 8 3t3 8q-1 9 -11 11q-27 0 -49 -15.5t-32 -39.5z" />
    <glyph glyph-name="uniE612" unicode="&#xe612;" 
d="M951 144q-28 41 -66 71.5t-83 48.5q41 28 65 72q9 17 15.5 35t9.5 37t3 38q0 60 -28 110.5t-76 80t-105 29.5q-8 0 -14.5 -4t-10.5 -11t-4 -15t4 -15t10.5 -11t14.5 -4q62 0 106 -47t44 -113t-44 -113t-106 -47q-6 0 -11.5 -2t-9.5 -6t-6 -9.5t-2 -11.5v-1
q0 -12 8.5 -20.5t20.5 -8.5q111 0 190 -84t79 -203q0 -12 8.5 -20.5t21.5 -8.5q8 0 14.5 4t10.5 10.5t4 14.5q1 113 -63 204v0zM645 194q-47 33 -101 52q38 23 65.5 56.5t42 74.5t14.5 86q0 68 -34 126.5t-92 92.5t-127 34t-127.5 -34t-92.5 -92.5t-34 -126.5q0 -15 2 -29
t5 -27.5t7.5 -27t10.5 -26.5t14 -25q32 -51 84 -83q-55 -18 -102 -52q-52 -37 -90 -88q-80 -107 -80 -241q0 -12 8.5 -21t21 -9t21 9t8.5 21q0 142 100 243q33 32 71.5 54.5t81.5 34t88 11.5q4 0 9 1l3 1q136 -3 234 -101q100 -101 100 -243q0 -12 9 -20.5t21 -8.5t20.5 8.5
t8.5 20.5q0 134 -80 241q-38 51 -90 88v0zM413 657q80 0 137 -57t57 -137.5t-57 -137.5t-137 -57q-18 0 -35 3.5t-32.5 9.5t-30 14t-27.5 19t-23.5 23.5t-19 27t-14.5 30t-9 33t-3 35.5q0 80 57 137t137 57zM413 657z" />
    <glyph glyph-name="uniE613" unicode="&#xe613;" 
d="M486 520l-311 -314q-32 -33 -7.5 -58t57.5 7l261 265v-476q0 -19 8.5 -31t24.5 -12q17 0 27 12t10 31v476l261 -264q15 -15 28.5 -18t28.5 10q25 25 -8 58l-311 314q-18 22 -33 22q-7 0 -16 -5.5t-14.5 -10.5t-5.5 -6zM205 611h631q23 0 34.5 8t11.5 27t-11 27.5t-35 8.5
h-631q-23 0 -34.5 -8.5t-11.5 -27.5q0 -35 46 -35z" />
    <glyph glyph-name="uniE614" unicode="&#xe614;" 
d="M876 776h-728q-8 0 -16.5 -2t-16 -5t-14 -7.5t-12.5 -10.5t-10.5 -12.5t-7.5 -14t-5 -16t-2 -16.5v-616q0 -35 25 -59.5t59 -24.5h728q34 0 59 24.5t25 59.5v616q0 23 -11.5 42t-30.5 30.5t-42 11.5zM148 720h728q11 0 19.5 -8.5t8.5 -19.5v-330q-27 22 -56 39.5
t-73.5 32.5t-87.5 15q-25 0 -53 -8t-49.5 -18.5t-52.5 -31.5t-48.5 -34.5t-50.5 -39.5q-43 -33 -66 -50t-55 -34t-54 -17q-70 0 -138 66v410q0 11 8.5 19.5t19.5 8.5zM876 48h-728q-11 0 -19.5 8.5t-8.5 19.5v133q69 -49 138 -49q24 0 48.5 8.5t54.5 27.5t49.5 33.5
t56.5 43.5q38 30 58.5 45t52.5 36t58.5 30t50.5 9q33 0 68 -11.5t59.5 -25.5t47 -32t30.5 -26t11 -12l1 1v-211q0 -5 -2.5 -10.5t-6 -9t-9 -6t-10.5 -2.5zM876 48zM344 384q46 0 79 32.5t33 79t-33 79.5t-79 33q-31 0 -56.5 -15t-40.5 -41t-15 -56q0 -47 32.5 -79.5
t79.5 -32.5zM344 552q15 0 28 -7.5t20.5 -20.5t7.5 -28q0 -23 -16.5 -39.5t-39.5 -16.5t-39.5 16.5t-16.5 39.5t16.5 39.5t39.5 16.5zM344 552z" />
    <glyph glyph-name="uniE615" unicode="&#xe615;" 
d="M921 335q0 -24 -6.5 -46t-20.5 -42q5 -17 5 -37q0 -41 -20 -77q1 -11 1 -23q0 -54 -32 -96q1 -37 -10.5 -66.5t-34.5 -51.5q-16 -14 -34.5 -23.5t-40.5 -14.5t-47 -5h-20h-50q-51 0 -101 12q-10 3 -21 5.5t-22 6t-23 7t-24.5 8t-26.5 8.5q-20 8 -35.5 12.5t-25 7
t-13.5 2.5h-154q-29 0 -49 20t-20 49v343q0 29 20 49q10 10 22 15t27 5h147q19 13 73 83q32 41 58 69q13 13 19 46q3 16 7 33t9 35t13.5 32.5t20.5 25.5q21 20 48 20q45 0 81 -17.5t55 -54.5q4 -8 7 -16t5 -17.5t3.5 -20t2.5 -22.5t1 -24q-1 -51 -26 -103h94q56 0 97 -41
t41 -96zM223 1q10 10 10 24q0 7 -2.5 13t-7.5 11q-10 10 -24 10q-7 0 -13 -2.5t-11 -7.5q-10 -10 -10 -24q0 -5 1 -9t3.5 -8t5.5 -7q10 -10 24 -10q7 0 13 2.5t11 7.5zM852 334q0 14 -5 26t-16 22q-21 21 -48 21h-189q0 31 26 86q9 18 14.5 33.5t8.5 28.5t3 24
q0 52 -17 77.5t-69 25.5q-7 -7 -12 -18.5t-8 -27.5q-7 -31 -17 -67q-5 -18 -13 -32.5t-19 -26.5q-6 -6 -16 -18t-25 -31q-2 -3 -12 -16q-11 -13 -17 -22q-4 -4 -8.5 -10t-10.5 -13q-12 -14 -21 -23t-21 -19q-11 -10 -21.5 -15t-19.5 -5h-17v-343h17q7 0 17 -2t18 -3.5
t20 -5.5q13 -4 19 -6q10 -4 19 -7q14 -5 16 -6q113 -39 183 -39h65q103 0 104 90q0 14 -3 30q16 8 25.5 27.5t9.5 39.5t-10 37q29 27 29 64q0 14 -5.5 30t-13.5 26q17 0 28.5 24.5t11.5 43.5z" />
    <glyph glyph-name="uniE616" unicode="&#xe616;" horiz-adv-x="1025" 
d="M907 647h-256q-5 0 -8.5 -1t-7 -3.5t-5.5 -5.5t-3.5 -7t-1.5 -8q0 -11 7.5 -18.5t18.5 -7.5h191l-338 -338q-4 -4 -6 -9t-2 -10.5t2 -10.5t6 -8q5 -6 12 -7.5t14 0t12 7.5l339 339v-168q0 -7 3.5 -13t9.5 -9.5t13 -3.5q5 0 10 2t8.5 5.5t5.5 8.5t2 10v231q0 10 -7.5 17.5
t-18.5 7.5zM889 186q-6 0 -10.5 -2t-8 -5.5t-5.5 -8.5t-2 -10v-20v-85q0 -10 -4 -19.5t-11 -16.5t-16.5 -11t-19.5 -4h-618q-21 0 -36 15t-15 36v431q0 6 1 12t3.5 11t6 9.5t8 8t9.5 6t11 4t12 1.5h240h20q7 0 13 3.5t9.5 9t3.5 12.5q0 3 -1 6t-2 5.5t-3 5t-4 4t-4.5 3
t-5.5 2t-6 0.5h-286q-21 0 -38.5 -10.5t-28 -28t-10.5 -38.5v-482q0 -21 10.5 -39t28 -28t38.5 -10h669q32 0 54.5 22.5t22.5 54.5v130q0 11 -7.5 18.5t-17.5 7.5z" />
    <glyph glyph-name="uniE617" unicode="&#xe617;" 
d="M647 187q-13 10 -26 19.5t-27 18t-28.5 15.5t-29.5 12q15 11 28 25q69 69 69 167.5t-69 168.5t-166 70t-166 -70q-22 -23 -37.5 -50t-23.5 -57t-8 -61q0 -99 69 -168q6 -7 13 -13t15 -12q-61 -23 -111 -65q-106 -91 -133 -227q-3 -14 5.5 -26.5t23 -15.5t27 5.5
t15.5 22.5q22 113 109 186q42 36 93 55q26 10 53.5 15t55.5 5t55.5 -5t53.5 -15q17 -6 33 -14.5t31.5 -18.5t28.5 -22q88 -73 109 -186q3 -12 13 -20.5t22 -8.5q2 0 4 0.5t3 0.5q15 3 23.5 15t5.5 27q-27 137 -133 227zM398 611q44 0 81.5 -22.5t59.5 -60.5t22 -83
q0 -69 -48 -118t-115 -49q-33 0 -63 13.5t-52 35.5t-35 53t-13 65q0 68 48 117t115 49zM1008 -42q-9 63 -32 116q-23 54 -58 96q-51 61 -124 95q20 23 35 53q32 61 32 127q0 98 -69 168t-166 70q-15 0 -25.5 -10.5t-10.5 -25.5q0 -7 3 -14t7.5 -11.5t11.5 -7.5t14 -3
q33 0 63 -13t52 -35.5t35 -53.5t13 -64q0 -49 -24 -94q-23 -46 -58 -66q-12 -7 -16 -20.5t2 -25.5q3 -8 9 -14t15 -8q90 -25 147.5 -95.5t72.5 -173.5q1 -9 6 -16t13 -11t16 -4q3 0 6 1q9 1 16.5 7t11 15t2.5 18z" />
    <glyph glyph-name="uniE618" unicode="&#xe618;" 
d="M901 305q-1 -1 -2 -1.5t-1 -1.5l-370 -370q-1 0 -3 -2q-69 -67 -166 -66.5t-165 69t-68.5 165.5t66.5 166l424 424q48 48 117 48t117 -48q16 -16 26.5 -34.5t16.5 -39.5t6 -43q0 -33 -13 -63.5t-36 -53.5l-425 -426q-18 -16 -41 -21t-45.5 1.5t-39.5 23.5
q-25 25 -26 61.5t24 63.5q1 1 1 2h1v1l1 1l370 370q7 7 7 17.5t-7 17.5q-5 5 -11.5 6.5t-13 0t-10.5 -6.5l-370 -370l-2 -1v-1l-5 -4q-2 -2 -4 -6q-34 -41 -31.5 -95t41.5 -93q40 -40 96.5 -41.5t98.5 37.5l1 1l425 425q64 63 64 153q0 21 -4.5 42t-12.5 40.5t-19.5 37
t-26.5 32.5q-64 63 -153.5 63t-152.5 -63l-212 -212l-145 -146l-66 -65v-1h-1q-81 -84 -80.5 -201.5t83.5 -200.5q41 -41 93.5 -62t108.5 -21q115 0 197 78q1 1 1.5 1t0.5 0.5t1 0.5l2 2l1 1l369 369v1q1 0 1.5 0.5t0.5 1.5q3 2 5 6t2.5 7.5t0 7.5t-2 7.5t-4.5 6.5
q-7 8 -17.5 8t-17.5 -7zM901 305z" />
    <glyph glyph-name="uniE619" unicode="&#xe619;" 
d="M437 420q50 0 98 7t91 21t73 34v-75h57v165q0 35 -28 65t-74 48.5t-102 28.5t-115 10q-80 0 -151.5 -17t-119.5 -52.5t-48 -82.5v-449q0 -29 18 -54t49.5 -42.5t72.5 -30.5t86.5 -19t92.5 -6v57q-114 0 -188 31t-74 64v135q45 -30 115.5 -46.5t146.5 -16.5v57
q-58 0 -109 9.5t-83.5 23.5t-51 30.5t-18.5 31.5v135q45 -30 115.5 -46t146.5 -16zM437 667q58 0 109 -9t83.5 -23.5t51 -31t18.5 -31.5q0 -8 -4.5 -16t-13.5 -16t-22.5 -16t-30 -15t-37.5 -13t-44.5 -10.5t-52 -7t-57.5 -2.5q-114 0 -188 31t-74 64.5t74 64.5t188 31z
M692 388q-100 0 -157.5 -32t-57.5 -76v-288q0 -43 57.5 -75.5t157.5 -32.5q67 0 117 16t73.5 39.5t24.5 51.5v289q0 44 -57.5 76t-157.5 32zM692 332q19 0 36.5 -2t32 -4.5t27 -6t22.5 -7.5t17.5 -8.5t12.5 -8.5t7.5 -8t2.5 -7q0 -4 -6 -10.5t-19.5 -13.5t-31.5 -13
t-44.5 -10t-56.5 -4q-22 0 -42 2t-35.5 5.5t-29 8t-23 9.5t-16 10t-9.5 9t-3 7q0 5 6 11.5t19.5 13.5t31.5 13t44.5 10t56.5 4zM692 -59q-30 0 -56.5 4t-44.5 9.5t-31.5 13t-19.5 13.5t-6 11v69q13 -8 29.5 -13.5t36.5 -10t43 -7t49 -2.5q98 0 158 33v-69q0 -5 -6 -11
t-19.5 -13.5t-31.5 -13t-44.5 -9.5t-56.5 -4zM692 85q-30 0 -56.5 4t-44.5 10t-31.5 13t-19.5 13t-6 11v69q28 -15 68 -24t90 -9q98 0 158 33v-69q0 -5 -6 -11t-19.5 -13t-31.5 -13t-44.5 -10t-56.5 -4z" />
    <glyph glyph-name="uniE61A" unicode="&#xe61a;" 
d="M521 411q39 0 76 -10.5t69 -30.5v74h-39l-12 16l210 288h60l-209 -278h3h12v-13v-105q14 -11 26 -23q9 -8 16.5 -17t14.5 -19t13 -20t11 -21t9 -22t7.5 -23t5.5 -24t3 -24.5t1 -25.5q0 -115 -81 -196.5t-196 -81.5t-196.5 81.5t-81.5 196.5t81 196q4 3 7 6.5t6.5 6.5
t7.5 6v83l9 -12h16v-53q33 22 71.5 33.5t79.5 11.5zM605 474l200 274h-35l-183 -250zM577 511l173 237h-35l-155 -214zM550 547l145 201h-38l-129 -172zM139 748l227 -303h229l-227 303h-229zM681 293q-21 20 -46 35t-54 23t-60 8q-94 0 -160 -66t-66 -160t66 -160
t159.5 -66t160 66t66.5 160t-66 160z" />
    <glyph glyph-name="uniE61B" unicode="&#xe61b;" 
d="M64 220h224v-321h-224v321zM399 700h224v-801h-224v801zM735 412h224v-513h-224v513z" />
    <glyph glyph-name="uniE61C" unicode="&#xe61c;" 
d="M875 -142h-732q-32 0 -54.5 22.5t-22.5 54.5v578q0 32 22.5 54.5t54.5 22.5h231v-39h-231q-11 0 -19.5 -5t-14 -14t-5.5 -19v-578q0 -16 11.5 -27.5t27.5 -11.5h732q8 0 15 3.5t12 8.5t8.5 12t3.5 15v578q0 16 -11.5 27t-27.5 11h-231v39h231q21 0 38.5 -10.5t28 -28
t10.5 -38.5v-578q0 -13 -4 -24.5t-11 -21t-16.5 -16.5t-21 -11t-24.5 -4zM586 320h193q8 0 13.5 -5.5t5.5 -13.5t-5.5 -13.5t-13.5 -5.5h-193q-8 0 -13.5 5.5t-5.5 13.5t5.5 13.5t13.5 5.5zM586 89h77q3 0 6 -1t5.5 -2.5t4 -4t2.5 -5.5t1 -6q0 -8 -5.5 -13.5t-13.5 -5.5h-77
q-8 0 -13.5 5.5t-5.5 13.5q0 4 1.5 7.5t4 6t6 4t7.5 1.5zM586 205h193q3 0 6 -1t5 -3t4 -4.5t3 -5t1 -6.5q0 -5 -2.5 -9.5t-7 -7t-9.5 -2.5h-193q-8 0 -13.5 5.5t-5.5 13.5q0 4 1.5 7.5t4 6.5t6 4.5t7.5 1.5zM355 397q48 0 81.5 -45t33.5 -109q0 -48 -20 -87q40 -22 40 -67
q0 -16 -6.5 -30t-16.5 -24.5t-24.5 -16.5t-29.5 -6h-116q-32 0 -54.5 22.5t-22.5 54.5q0 45 40 67q-21 39 -21 87q0 64 34 109t82 45zM355 359q-9 0 -18 -3t-16.5 -9t-14 -13.5t-12 -18t-9 -21.5t-5.5 -24t-2 -27q0 -31 10 -57.5t28 -42t39 -15.5q8 0 15.5 2t14.5 6.5t13 11
t11 14t9.5 17t7.5 19.5t4.5 21.5t1.5 23.5q0 48 -22.5 82t-54.5 34zM258 89q0 -16 11.5 -27t27.5 -11h116q16 0 27 11t11 27q0 25 -23 35q-32 -35 -73.5 -35t-73.5 35q-5 -2 -9 -5.5t-7 -8t-5 -10t-2 -11.5zM625 474h-232q-8 0 -13.5 6t-5.5 14t5.5 13.5t13.5 5.5h20v38v39
v19v39q0 19 7.5 37t20.5 31t30.5 20.5t37.5 7.5q40 0 68 -28t28 -68v-39v-19v-39v-38h20q8 0 13.5 -5.5t5.5 -13.5q0 -6 -2.5 -10t-7 -7t-9.5 -3zM567 551v39v19v39q0 5 -1 10t-3 10t-4.5 9t-5.5 8t-7 7t-8 5.5t-9 4.5t-10 3t-10 1q-24 0 -41 -17t-17 -41v-39v-19v-39v-38
h116v38zM509 629q-8 0 -13.5 5.5t-5.5 13.5q0 3 1 6t2.5 5.5t4 4t5.5 2.5t6 1q4 0 7.5 -1.5t6 -4t4 -6t1.5 -7.5q0 -3 -1 -6t-2.5 -5.5t-4 -4.5t-5.5 -2.5t-6 -0.5z" />
    <glyph glyph-name="uniE61D" unicode="&#xe61d;" 
d="M486 226q-117 0 -200.5 84t-83.5 201.5t83.5 201t200.5 83.5q78 0 143.5 -38t103.5 -104t38 -143q0 -75 -38 -141t-104 -105t-143 -39zM486 767q-105 0 -178.5 -74.5t-73.5 -178.5q0 -105 74.5 -178.5t177.5 -73.5q105 0 179 74.5t74 177.5q0 42 -12.5 80.5t-36 69.5
t-54.5 54.5t-69.5 36t-80.5 12.5zM867 -202q-16 0 -16 16q0 74 -29 141.5t-77.5 116.5t-116 77.5t-142.5 28.5q-99 0 -183 -48.5t-132.5 -132.5t-48.5 -183q0 -16 -16 -16t-16 16q0 54 14 105.5t40 95t62.5 80t80 62t95 39.5t104.5 14q109 0 200.5 -53.5t144 -144.5
t52.5 -198q0 -16 -16 -16z" />
    <glyph glyph-name="uniE61E" unicode="&#xe61e;" 
d="M506 523h1q13 1 27.5 9.5t25 20t14.5 22.5q3 9 3 18.5t-2.5 19t-5 17t-8.5 17.5t-9.5 15.5t-10.5 15.5q-6 10 -9.5 15t-7.5 12.5t-5 12.5l-2 7h-13q-2 0 -4 -1l-4 -2q-3 -1 -4.5 -3.5t-1.5 -4.5l-1 -1q-2 -10 -7 -19.5t-16 -23.5q-8 -11 -12 -18t-10 -18t-7.5 -22.5
t-0.5 -23.5q1 -11 8 -23t17 -21t22 -15t23 -6zM495 650q4 5 7 9.5t5 8.5q40 -54 30 -85q-2 -5 -4.5 -8.5t-6 -6.5t-8 -5.5t-10.5 -4.5q-1 1 -3.5 2t-3.5 2q-26 12 -30 23q-6 20 24 65zM861 22q-1 19 -1 26v178q0 3 0.5 6.5t0.5 7.5v6v7q2 48 -3 64q-4 11 -15.5 21t-24 16
t-32.5 12t-31.5 8.5t-30.5 5.5q-59 12 -158 18v75l-8 1q-55 13 -110 0l-8 -1v-76q-72 -3 -148 -19h-4q-24 -5 -37.5 -8.5t-34 -11t-33 -18t-16.5 -23.5q-7 -18 -4 -64q1 -18 1 -25v-178v-12q0 -7 -1 -16q-1 -18 -0.5 -36t4.5 -27q15 -45 150 -68q94 -16 192 -16q49 0 98 4
t98 12q69 11 107 28t46 40q6 16 3 63zM325 55l9 -15l8 16q9 17 30.5 27.5t48.5 10.5t48.5 -10.5t30.5 -27.5l9 -18l9 18q9 17 30.5 27.5t49.5 10.5q24 0 45.5 -9t30.5 -29l7 -16l10 15q12 18 36 29.5t50 11.5t45 -13v-106q-62 -50 -248 -58q-29 -2 -60 -2t-62 2
q-83 3 -148 15.5t-102 42.5v110q18 9 40 9q26 0 49 -11.5t34 -29.5zM822 116q-10 4 -21.5 6.5t-23.5 2.5q-27 0 -52.5 -10.5t-40.5 -26.5q-27 36 -85 36q-59 0 -91 -36q-27 36 -86 36q-29 0 -52 -9.5t-36 -26.5q-35 37 -92 37q-21 0 -40 -7v133q39 -16 88 -27.5t105.5 -17.5
t116.5 -6q190 0 310 51v-135zM822 301q1 -10 -50 -26l-4 -1q-41 -13 -93.5 -21t-111.5 -11l3 1v113l20 -1q35 -2 53 -3.5t44.5 -5t49 -8.5t45.5 -13q7 -3 13.5 -5.5t11 -5t8.5 -4.5t6 -4t3.5 -3t1.5 -2zM440 252v-5l5 -3l1 -1q-112 6 -189 31q-22 7 -34.5 12.5t-16 8.5
t-4.5 5q0 3 4 7t27.5 13t66.5 18l3 1q47 9 129 16l8 1q-1 -63 0 -104zM530 268q-27 -5 -54 0v176h31h23v-176z" />
    <glyph glyph-name="uniE61F" unicode="&#xe61f;" 
d="M863 567h-702q-28 0 -28 -27v-480q0 -7 4 -13.5t10 -10t14 -3.5h702q12 0 20 8t8 19v480q0 12 -7.5 19t-12 7.5t-8.5 0.5zM784 512l-272 -215l-272 215h544zM836 88h-648v395l324 -257l324 257v-395z" />
    <glyph glyph-name="uniE620" unicode="&#xe620;" 
d="M369 -212h-71l-76 11l-53 19l-28 22l-9 14l-5 17q-1 2 -1 4v4q0 2 1 4v4q0 2 1 4l1 15q0 2 1 4l7 17l2 4q1 0 3 3l1 1l4 6q2 2 3 2l10 8q1 1 2.5 1.5t2.5 1.5l28 10l-16 15l-30 38l-15 26q-1 1 -1 3l-9 21l-31 -34l-15 -10l-19 -7l-10 -1h-3t-6 1.5t-6 3.5t-4 5
q-4 3 -4 5l-9 24l-5 38l1 36l11 54l13 35l26 48l33 43l53 48l-2 8v3v17l1 5l9 31l10 17l1 15l11 32l4 6v15l7 42l15 45l20 42l40 56l31 34l33 29l34 20l66 25l74 13l62 1l47 -5l62 -15l44 -18l28 -15l34 -23l30 -28l24 -28l24 -42l28 -79l8 -33l7 -44l21 -40l9 -42l1 -7
l-1 -7v-4v-2q0 -1 -1 -2l-4 -17q0 -1 -0.5 -2t-0.5 -2l-2 -5l56 -95l23 -57l9 -38l5 -60l-6 -37l-14 -35l-15 -16l-4 -2l-6 -3q-1 -1 -5 -2l-5 -1h-4q-3 0 -5 1q-4 1 -5 2l-5 2l-2 1t-2 2l-4 3l-11 11l-18 27l-12 -30l-39 -58l36 -19l25 -20q1 0 3 -2l11 -16l7 -23v-3
q0 -2 -1 -4v-3v-3l-1 -4l-2 -4l-1 -2l-1 -4l-19 -24l-18 -12l-40 -16l-50 -10l-71 -3l-78 9l-48 11l-55 17l-34 2l-43 -24l-47 -16l-43 -5l-12 -1h-1zM158 -123l9 -18l11 -9l32 -15l66 -12l24 -3h69l37 3l30 7l60 29l4 4q5 5 12 4l31 -3h11h4l40 -13l30 -9l88 -14l15 -1
l67 3l54 12l31 14l12 13l4 5q0 1 0.5 2.5t1.5 1.5v2v4h1l-6 15l-7 8l-19 14l-19 11l-31 16q-2 1 -3 2q-3 3 -4.5 8t-1 10t3.5 8l20 21l27 43l18 46q1 2 1 3l3 5q2 4 6 7l2 1q3 2 6 3t6.5 0.5t5.5 -1.5q5 -3 8 -8l35 -55l4 -2l6 4l11 19l5 22l3 21l-2 34l-10 52l-29 66
l-24 45l-26 37q0 1 -1 3l-1 1q-2 3 -2 7q0 2 0.5 4t0.5 3l10 38l-4 20l-7 23l-17 29l-3 6v4l-9 57l-22 71l-30 56l-57 57l-34 21l-39 17l-42 13l-73 11l-57 -1l-68 -12l-37 -12l-43 -22l-27 -20l-42 -43l-36 -53l-28 -63l-10 -52v-18q0 -6 -4 -11l-7 -12l-6 -26v-4
q0 -5 -2 -9l-9 -15l-8 -28l1 -12l3 -12q1 -5 -0.5 -10t-5.5 -8l-48 -41l-24 -27l-28 -44l-22 -52l-10 -48l-1 -17l1 -29l8 -31l10 3l24 21l20 30l2 7q1 1 2 2.5t2.5 3t3.5 2.5l1 1h2q7 4 15 0h1v-1q8 -4 10 -11l9 -30l29 -54l40 -40l13 -10q3 -2 6 -5l2 -4q1 -2 1.5 -4
t0.5 -4q0 -8 -5 -13q-2 -1 -3.5 -2t-3.5 -2l-6 -1l-40 -9l-3 -2q-1 0 -2 -0.5t-2 -0.5l-3 -2l-6 -3l-4 -5l-1 -1l-1 -2l-5 -14v-4v-6l-1 -5v-2v-2z" />
    <glyph glyph-name="uniE621" unicode="&#xe621;" 
d="M945 128v315v3v257q0 39 -27.5 67t-66.5 28h-678q-26 0 -47.5 -13t-34 -34.5t-12.5 -47.5v-807q0 -39 27.5 -66.5t66.5 -27.5h316q11 0 19 7.5t8 18.5q0 7 -3.5 13t-10 9.5t-13.5 3.5h-316q-5 0 -9.5 1t-9 3t-8 5t-6 6.5t-5 7.5t-3.5 9t-1 10v807q0 9 3.5 16.5t9 13t13 9
t16.5 3.5h678q17 0 29.5 -12t12.5 -30v-557h-237q-23 0 -39 -16.5t-16 -39.5v-258q0 -31 19 -31q11 0 24 13l288 289q6 5 9 10.5t4 10.5v4zM853 95l-202 -202v197q0 2 1.5 3.5t3.5 1.5h197zM213 514h597q12 0 21 9t9 21.5t-9 21t-21 8.5h-597q-12 0 -21 -8.5t-9 -21.5
q0 -21 21 -28q5 -2 9 -2zM213 291h597q3 0 6 0.5t5.5 1.5t5 3t4.5 4q4 4 6.5 9.5t2.5 11.5q0 12 -9 21t-21 9h-597q-8 0 -15 -4t-11 -11t-4 -15q0 -22 21 -28q5 -2 9 -2zM213 291z" />
    <glyph glyph-name="uniE622" unicode="&#xe622;" 
d="M203 399h175v-175h-175v175zM425 399h175v-175h-175v175zM647 399h175v-175h-175v175zM203 144h175v-175h-175v175zM425 144h175v-175h-175v175zM859 698h-115v-54q0 -10 -2.5 -19.5t-7.5 -17.5t-11.5 -15t-14.5 -12t-18 -7.5t-20 -2.5h-4q-15 0 -28.5 6t-23.5 15.5
t-15.5 23.5t-5.5 29v54h-161v-54q0 -12 -3.5 -23.5t-10.5 -20.5t-16 -15.5t-20.5 -10.5t-22.5 -4h-5q-10 0 -19.5 2.5t-17.5 7.5t-14.5 11.5t-11.5 15t-7.5 18t-2.5 19.5v54h-115q-44 0 -75.5 -31.5t-31.5 -76.5v-692q0 -45 31.5 -76.5t75.5 -31.5h693q29 0 53.5 14.5t39 39
t14.5 54.5v692q0 45 -31.5 76.5t-75.5 31.5zM896 -110q0 -4 -1.5 -7.5t-4 -6t-6 -4t-7.5 -1.5h-730q-7 0 -12.5 5.5t-5.5 13.5v583q0 5 2.5 9t6.5 6.5t9 2.5h730q3 0 6 -0.5t5.5 -2.5t4 -4t2.5 -5t1 -6v-583zM355 590h3q23 0 39 16t16 39v112q0 23 -16 39t-39 16h-3
q-9 0 -17.5 -3t-15 -8t-11.5 -11.5t-8 -15t-3 -17.5v-112q0 -23 16 -39t39 -16zM666 590h3q23 0 39 16t16 39v112q0 23 -16 39t-39 16h-3q-8 0 -15 -2t-13 -5.5t-11 -8.5t-8.5 -11t-5.5 -13t-2 -15v-112q0 -9 3 -17.5t8 -15t11.5 -11.5t15 -8t17.5 -3z" />
    <glyph glyph-name="uniE623" unicode="&#xe623;" 
d="M933 150h-84v135q0 19 -9.5 35t-25.5 25.5t-35 9.5h-522q-29 0 -50 -20.5t-21 -49.5v-135h-87q-18 0 -31 -13.5t-13 -31.5v-207q0 -19 13 -32t31 -13h207q12 0 22.5 6t16.5 16.5t6 22.5v207q0 18 -13 31.5t-32 13.5h-81v135q0 13 9 22.5t23 9.5h522q8 0 15.5 -4.5t12 -12
t4.5 -15.5v-135h-85q-18 0 -31.5 -13.5t-13.5 -31.5v-207q0 -19 13.5 -32t31.5 -13h207q19 0 32 13t13 32v207q0 18 -13 31.5t-32 13.5zM313 105v-207q0 -6 -7 -6h-207q-6 0 -6 6v207q0 6 6 6h207q7 0 7 -6zM940 -102q0 -6 -7 -6h-207q-6 0 -6 6v207q0 2 2 4t4 2h207
q3 0 5 -2t2 -4v-207zM620 680v0v-217h-216v217h216zM620 720h-216q-17 0 -28.5 -12t-11.5 -28v-217q0 -16 11.5 -28t28.5 -12h216q17 0 28.5 12t11.5 28v217q0 10 -5 19.5t-14.5 15t-20.5 5.5z" />
    <glyph glyph-name="uniE624" unicode="&#xe624;" horiz-adv-x="1357" 
d="M683 208l564 527h-1128zM68 -120q0 -7 2 -13t5.5 -11t8.5 -8.5t11 -5.5t12 -2h1155q16 0 27.5 11.5t11.5 28.5v811l-361 -337l282 -382l-350 319l-189 -177l-193 180l-352 -322l284 386l-354 330v-808z" />
    <glyph glyph-name="uniE625" unicode="&#xe625;" horiz-adv-x="1340" 
d="M1290 -212q-23 0 -34 20q-33 59 -71 105.5t-76.5 79t-85.5 56t-91.5 37.5t-102 22t-109 11t-120.5 3v-263q0 -25 -23 -35.5t-42 5.5l-521 441q-14 12 -14 29.5t13 29.5l521 473q19 17 42.5 6.5t23.5 -35.5v-224q356 -17 567 -331q111 -165 157 -362q4 -14 5 -22
q2 -9 -1 -18t-9 -15.5t-15 -10.5q-7 -2 -14 -2zM99 301l422 -357v218q0 10 5.5 19.5t14.5 14.5t20 5q86 0 146.5 -2.5t132 -12.5t126 -27.5t111 -49t105.5 -76.5q-28 63 -62 117q-201 321 -559 321q-17 0 -28.5 11.5t-11.5 27.5v174z" />
    <glyph glyph-name="uniE626" unicode="&#xe626;" 
d="M704 396q5 15 1.5 25t-14.5 18t-21.5 12t-19.5 7l-10 2q-5 -5 -13 -12.5t-29 -28.5t-37.5 -40t-31.5 -41.5t-17 -37.5q-2 -13 26.5 -56.5t37.5 -71.5q12 -49 10.5 -94.5t-10.5 -65.5q4 2 12.5 6.5t32 20.5t45.5 36t50.5 54.5t51.5 74.5q-9 18 -22 45.5t-31 79.5t-11 67z
M512 748q-61 0 -119 -16.5t-107 -45t-90.5 -70t-70 -90.5t-45 -107t-16.5 -119q0 -52 12 -102.5t34 -94.5t52.5 -83t69.5 -69.5t83 -52.5t94.5 -34t102.5 -12q91 0 174 35.5t143 95.5t95.5 143t35.5 174q0 46 -9.5 90.5t-26 84t-41 75.5t-55 66.5t-66.5 55t-75.5 41t-84 26
t-90.5 9.5zM512 -84q-104 0 -192.5 51.5t-140 140t-51.5 192.5t51.5 192.5t140 140t192.5 51.5t192.5 -51.5t140 -140t51.5 -192.5q0 -62 -19.5 -121t-55 -106t-82.5 -82.5t-105.5 -55t-121.5 -19.5zM416 588q-38 -22 -72 -53.5t-55 -60t-36.5 -54.5t-22 -40.5t-6.5 -15.5
q8 19 42 29t71 12t83 -1t64 -5t28 -3q6 15 4.5 32.5t-9.5 36t-19.5 36.5t-24 33.5t-23 27.5t-17.5 19z" />
    <glyph glyph-name="uniE627" unicode="&#xe627;" 
d="M992 500q-13 0 -22 -9t-9 -22v-557q0 -26 -18 -44t-44 -18h-774q-26 0 -44 18t-18 44v774q0 26 18 44t44 18h526q6 0 12 2.5t10 6.5t6.5 10t2.5 12t-2.5 12t-6.5 10t-10 6.5t-12 2.5h-557q-39 0 -66 -27t-27 -66v-836q0 -39 27 -66t66 -27h836q25 0 46.5 12.5t34 34
t12.5 46.5v588q0 5 -1.5 10t-4.5 9t-7 6.5t-8.5 4t-9.5 1.5zM380 198q4 -3 8.5 -5.5t9 -3t9.5 0t9.5 3t7.5 5.5l557 560q4 4 6.5 10t2.5 12t-2.5 11.5t-6.5 10.5q-9 9 -22 9t-22 -9l-557 -560q-9 -9 -9 -22t9 -22z" />
    <glyph glyph-name="uniE628" unicode="&#xe628;" 
d="M803 -212h-659q-46 0 -78 32t-32 78v733q0 46 32 78t78 32h513q22 0 31 -18.5t0 -36.5t-31 -18h-513q-15 0 -26 -11t-11 -26v-733q0 -15 11 -26t26 -11h659q15 0 26 11t11 26v586q0 23 18.5 32t36.5 0t18 -32v-586q0 -46 -32 -78t-78 -32zM562 385q-23 26 0 52l364 365
q11 10 26 10t27 -10q19 -21 5 -45l-5 -8l-364 -364q-8 -7 -17.5 -9.5t-19 0t-16.5 9.5zM437 374h-220q-13 0 -22 8t-11.5 18.5t0 21.5t11.5 18.5t22 7.5h220h2h2l2 -1q25 -3 29 -30q4 -28 -19 -39l-1 -1h-1h-1v-1h-1h-1h-1l-1 -1h-1h-1h-1h-1h-1h-1l-1 -1h-2zM657 155h-440
q-22 0 -31 18t0 36.5t31 18.5h440q22 0 31 -18.5t0 -36.5t-31 -18z" />
    <glyph glyph-name="uniE629" unicode="&#xe629;" 
d="M491 99q0 -10 -7.5 -17.5t-18.5 -7.5h-250q-7 0 -13 3.5t-9.5 9t-3.5 12.5q0 5 2 10t5.5 8.5t8.5 5.5t10 2h250q7 0 13 -3.5t9.5 -9.5t3.5 -13zM572 274q0 -5 -2 -10t-5.5 -8t-8 -5t-9.5 -2h-333q-6 0 -12 3t-9.5 9t-3.5 13q0 10 7.5 17.5t17.5 7.5h333q10 0 17.5 -7.5
t7.5 -17.5zM656 448q0 -3 -1 -6.5t-2.5 -6t-4 -5t-5 -4t-6 -2.5t-7.5 -1h-415q-7 0 -13 3.5t-9.5 9t-3.5 12.5q0 3 0.5 5t1 3.5t1.5 3.5t2 3.5t2.5 3t3 2.5t3.5 2t4 1l4 2h4h415q7 0 13 -3.5t9.5 -9.5t3.5 -13zM949 488q8 -7 10.5 -16t-2.5 -16l-291 -374q-5 -7 -15 -7
t-18 7q-5 4 -8 10t-3 11.5t3 9.5l292 375q5 6 14.5 6t17.5 -6zM834 423v261q0 13 -5 24.5t-13.5 20.5t-20.5 14t-25 5h-642q-9 0 -17 -2.5t-15 -6.5t-13 -10t-10 -13t-6.5 -15.5t-2.5 -16.5v-770q0 -26 18.5 -45t45.5 -19h642q8 0 15 2t13.5 5t12 7.5t10 10t7.5 11.5
t4.5 13.5t1.5 14.5v190v8v72h-51v-72v-8v-146q0 -23 -16 -40t-39 -17h-557q-23 0 -39.5 17t-16.5 40v682q0 5 1 10t2.5 9.5t4 9t5.5 8t7 6.5t8 5.5t8.5 4.5t9.5 3t10 1h557q4 0 8.5 -1t8.5 -2.5t8 -3.5t7.5 -4.5t6.5 -5.5t5.5 -6.5t4.5 -7.5t3.5 -8t2 -9t0.5 -9v-217h51z
" />
    <glyph glyph-name="uniE62A" unicode="&#xe62a;" 
d="M806 441q42 0 77.5 20.5t56 56t20.5 77.5q0 63 -45 108.5t-109 45.5q-42 0 -77.5 -21t-56 -56.5t-20.5 -76.5q0 -4 0.5 -8t0.5 -7.5t1 -6.5l-324 -125q-46 49 -112 49q-64 0 -109 -45.5t-45 -108.5q0 -42 20.5 -77.5t56 -56t77.5 -20.5q24 0 47 7t42 21l219 -146
q-14 -31 -14 -64q0 -64 45 -109t109 -45q42 0 77.5 20.5t56 56t20.5 77t-20.5 77t-56 56.5t-77.5 21q-63 0 -107 -44l-212 141q12 19 18.5 40.5t6.5 44.5q0 29 -11 57l311 119q20 -35 56 -56.5t78 -21.5z" />
    <glyph glyph-name="uniE62B" unicode="&#xe62b;" horiz-adv-x="1304" 
d="M285 812h985q2 0 5 -0.5t5.5 -1.5t4.5 -2t4 -2.5t4 -3.5t3.5 -4t2.5 -4l2 -6q1 -2 1.5 -4.5t0.5 -5.5v-109q0 -14 -10 -24t-23 -10h-985q-14 0 -23.5 10t-9.5 24v109q0 9 4.5 17t12 12.5t16.5 4.5zM34 812h95q14 0 24 -10t10 -24v-109q0 -7 -3 -13.5t-7.5 -11t-10.5 -7
t-13 -2.5h-95q-14 0 -23.5 10t-9.5 24v109q0 24 22 32q6 2 11 2zM34 -35h95q7 0 13 -2.5t10.5 -7t7.5 -11t3 -13.5v-109q0 -14 -10 -24t-24 -10h-95q-14 0 -23.5 10t-9.5 24v109q0 14 9.5 24t23.5 10zM34 389h95q14 0 24 -10t10 -24v-110q0 -14 -10 -24t-24 -10h-95
q-14 0 -23.5 10t-9.5 24v110q0 14 9.5 24t23.5 10zM285 -35h985q4 0 8.5 -1t8 -3.5t6.5 -5.5t5 -6.5t3.5 -8t1.5 -9.5v-109q0 -14 -10 -24t-23 -10h-985q-14 0 -23.5 10t-9.5 24v109q0 14 9.5 24t23.5 10zM285 389h985q2 0 5 -0.5t5.5 -1.5t4.5 -2t4 -2.5t4 -3.5t3.5 -4
t2.5 -5l2 -4q1 -3 1.5 -5.5t0.5 -5.5v-110q0 -14 -10 -24t-23 -10h-985q-14 0 -23.5 10t-9.5 24v110q0 14 9.5 24t23.5 10z" />
    <glyph glyph-name="uniE62C" unicode="&#xe62c;" 
d="M512 -147q-91 0 -174 35.5t-143 95.5t-95.5 142.5t-35.5 173.5t35.5 174t95.5 143t143 95.5t174 35.5t173.5 -35.5t142.5 -95.5t95.5 -143t35.5 -174t-35.5 -173.5t-95.5 -142.5t-142.5 -95.5t-173.5 -35.5zM511.5 705q-82.5 0 -157.5 -32t-129 -86t-86 -129t-32 -157.5
t32 -157.5t86 -129t129 -86.5t157.5 -32.5t157.5 32.5t129 86.5t86.5 129t32.5 157.5t-32.5 157.5t-86.5 129t-129 86t-157.5 32z" />
    <glyph glyph-name="uniE62D" unicode="&#xe62d;" 
d="M181.5 674q-13.5 0 -24.5 -6.5t-17.5 -17.5t-6.5 -25q0 -20 14 -34.5t34.5 -14.5t35 14.5t14.5 34.5q0 14 -7 25t-18 17.5t-24.5 6.5zM319 596h529q12 0 20.5 8.5t8.5 20.5t-8.5 21t-20.5 9h-529q-12 0 -21 -9t-9 -21t9 -20.5t21 -8.5zM182 439q-10 0 -19.5 -4t-16 -10.5
t-10 -15.5t-3.5 -19q0 -20 14 -34.5t35 -14.5q10 0 19 4t15.5 10.5t10.5 15.5t4 19q0 20 -14.5 34.5t-34.5 14.5zM848 419h-529q-12 0 -21 -8.5t-9 -20.5t9 -20.5t21 -8.5h529q12 0 20.5 8.5t8.5 20.5t-8.5 20.5t-20.5 8.5zM182 184q-6 0 -11.5 -1t-10.5 -3.5t-9 -6
t-7.5 -7.5t-6 -9t-3.5 -10.5t-1 -11.5q0 -20 14 -34.5t35 -14.5q13 0 24 6.5t18 18t7 24.5q0 21 -14.5 35t-34.5 14zM848 165h-529q-12 0 -21 -9t-9 -21t9 -20.5t21 -8.5h529q12 0 20.5 8.5t8.5 20.5t-8.5 21t-20.5 9z" />
    <glyph glyph-name="uniE62E" unicode="&#xe62e;" 
d="M825 667h-624q-29 0 -53 -13.5t-38 -37.5t-14 -53v-417q0 -43 30.5 -73.5t74.5 -30.5h204l108 -131l107 131h205q43 0 73.5 30.5t30.5 73.5v417q0 29 -14 53t-38 37.5t-52 13.5zM279 303q-22 0 -37 15t-15 36.5t15 37t36.5 15.5t37 -15.5t15.5 -37t-15.5 -36.5t-36.5 -15
zM513 303q-14 0 -26 7t-19 19t-7 26q0 21 15 36.5t37 15.5q14 0 26 -7t19 -19t7 -26t-7 -26t-19 -19t-26 -7zM747 303q-21 0 -36.5 15t-15.5 36.5t15.5 37t36.5 15.5q11 0 20.5 -4t16.5 -11t11 -16.5t4 -20.5q0 -14 -7 -26t-19 -19t-26 -7z" />
    <glyph glyph-name="uniE62F" unicode="&#xe62f;" 
d="M853 640l-281 42l-273 -273l-12 -12l-159 -158l324 -325l444 444zM196 239l103 102l256 -256l-103 -102zM589 119l-256 256l256 256l213 -43l43 -213zM684 469zM636 469q0 8 2 15.5t6.5 13t10.5 10t13.5 7t15.5 2.5q20 0 34 -14t14 -34q0 -8 -2.5 -15.5t-7 -13.5
t-10.5 -10t-13 -6.5t-15 -2.5q-20 0 -34 14t-14 34z" />
    <glyph glyph-name="uniE630" unicode="&#xe630;" 
d="M674 277q45 40 71 97t26 123q0 77 -35.5 142.5t-96 103.5t-132.5 38q-109 0 -186 -83.5t-77 -200.5q0 -119 78 -202q8 -7 22 -18.5t52.5 -30.5t78 -26.5t94.5 5t105 52.5zM851 80l-143 131q-20 -17 -43.5 -31t-65.5 -27t-85.5 -14t-103 17t-119.5 58q-24 -19 -48.5 -39.5
t-58.5 -54t-58 -63.5t-39 -64.5t-10 -61.5q1 -4 2 -11t11.5 -24t27.5 -30.5t54.5 -25t87.5 -13.5q22 -1 58.5 -3t133 -4t175.5 1.5t154.5 18t100.5 40.5q36 25 35 72q0 57 -66 128z" />
    <glyph glyph-name="uniE631" unicode="&#xe631;" 
d="M147 114q0 6 -2 11.5t-4 8t-7 6.5q-13 12 -25 13q-6 0 -11 -2t-8 -4.5t-7 -6.5q-12 -14 -13 -26q0 -12 13 -25t26 -13t25.5 13t12.5 25zM954 447q0 32 -20 51q-19 19 -57 20h-327q0 5 0.5 8t2 8.5t4.5 8.5l19 39q10 9 19 38q7 19 7 51q0 20 -6 34.5t-20 23.5
q-19 13 -64 13q-5 0 -19 -20.5t-32 -56.5q-3 -8 -11 -23t-8 -22q-5 -9 -12.5 -19.5t-14.5 -19t-18.5 -22t-18.5 -22.5q-21 -17 -56 -56q-2 -1 -2 -2q-19 -14 -41.5 -23t-41.5 -9h-19v-365h19q38 0 96 -19q10 -3 22 -7t22 -8t20.5 -8t22 -8t22.5 -7q58 -19 102 -19
q109 0 109 96v32q13 6 25 32q13 26 13 44q0 4 -0.5 7.5t-1 6.5t-1.5 6l-2 4q-1 3 -2 5l-2 5q-2 3 -4 5q32 32 32 70q0 19 -6 32q-3 7 -8 11.5t-5 7.5h192q32 1 51 20q20 19 20 57zM1024 447q0 -66 -45 -102q-18 -23 -45 -34t-57 -11h-96q0 -32 -19 -70v-26q0 -49 -32 -102
q0 -86 -52 -128q-44 -45 -128 -45q-80 0 -185 38q-80 32 -128 32h-167q-32 1 -51 19q-9 9 -14 28.5t-5 35.5v365q0 32 19 51q10 10 23.5 15t27.5 5h167h13q2 0 3.5 1t2.5 2.5t2.5 4t3.5 4.5l13 13q10 0 13 10v3q6 0 13 6l13 13q6 7 6 13q38 38 58 77q6 6 19 32q2 4 6 14
q9 20 13 24q2 3 10 17t16 22q19 19 32 25q25 13 38 13q77 0 115 -38q45 -45 45 -109q0 -32 -13 -71h211q15 0 29 -2.5t27.5 -7.5t25 -14t21.5 -20q44 -56 50 -87q1 -9 1 -16z" />
    <glyph glyph-name="uniE632" unicode="&#xe632;" 
d="M486 649h52v-243l264 -101l-22 -57l-295 108l1 293v0zM87 383q0 -115 57 -213t154.5 -155t213 -57t213.5 57t155 155t57 213q0 43 -9 85.5t-25 80t-39 72t-51.5 63t-63 51.5t-72.5 39t-80 25t-85 9q-58 0 -113 -15.5t-101.5 -42.5t-86 -66.5t-67 -86t-42.5 -101.5
t-15 -113v0zM87 383z" />
    <glyph glyph-name="uniE633" unicode="&#xe633;" 
d="M514 790q-102 0 -195 -39.5t-160.5 -107t-107 -160.5t-39.5 -195t39.5 -195t107 -160.5t160.5 -107t195 -39.5t195 39.5t160.5 107t107 160.5t39.5 195q0 59 -13 115t-38 105.5t-59 93.5t-78 78t-93 59t-105.5 38t-115.5 13zM514 -168q-93 0 -177.5 36t-145.5 97
t-97 145.5t-36 177.5t36 177.5t97 145.5t145.5 97t177.5 36t177.5 -36t145.5 -97t97 -145.5t36 -177.5q0 -74 -23 -144t-65 -126t-98 -98t-126 -65t-144 -23zM537 539h-46v-228h-228v-46h228v-228h46v228h228v46h-228v228v0z" />
    <glyph glyph-name="uniE634" unicode="&#xe634;" 
d="M511 744q-72 0 -139.5 -22t-122 -63t-95.5 -95.5t-63.5 -122.5t-22.5 -140q0 -90 35 -172t94.5 -141.5t141.5 -94.5t172 -35t172 35t141.5 94.5t94.5 141.5t35 172q0 52 -11.5 102t-33.5 93.5t-52 82t-68.5 68.5t-82.5 52t-93.5 33.5t-101.5 11.5zM511 -97
q-108 0 -200 53t-145.5 145t-53.5 200q0 81 32 155t85 127.5t127 85t155 31.5q108 0 200 -53.5t145.5 -145t53.5 -200.5q0 -65 -20 -125.5t-57 -109.5t-86 -86t-110 -57t-126 -20zM709 439l-234 -233l-117 117q-5 5 -11.5 6.5t-13 -1t-11.5 -7.5q-8 -7 -8.5 -17.5t6.5 -17.5
l136 -136q8 -8 19 -7q12 -1 21 8l250 250q8 8 8 19t-7.5 19t-18.5 8t-19 -8z" />
  </font>
</defs>
</svg>
